<svg width="70" height="70" viewBox="0 0 70 70" fill="none" xmlns="http://www.w3.org/2000/svg">
<g clip-path="url(#clip0_39_57)">
<path d="M65.6277 3.61304H33.6783C33.4054 3.61304 33.1437 3.72145 32.9508 3.91441C32.7578 4.10738 32.6494 4.3691 32.6494 4.642C32.6494 4.9149 32.7578 5.17662 32.9508 5.36959C33.1437 5.56256 33.4054 5.67097 33.6783 5.67097H65.6277C66.9039 5.67097 67.9422 6.70913 67.9422 7.98532V52.0631C67.9422 53.3393 66.9039 54.3775 65.6277 54.3775H33.6783C33.4054 54.3775 33.1437 54.486 32.9508 54.6789C32.7578 54.8719 32.6494 55.1336 32.6494 55.4065C32.6494 55.6794 32.7578 55.9411 32.9508 56.1341C33.1437 56.3271 33.4054 56.4355 33.6783 56.4355H42.5012V60.0197H33.6783C33.4054 60.0197 33.1437 60.1281 32.9508 60.3211C32.7578 60.5141 32.6494 60.7758 32.6494 61.0487C32.6494 61.3216 32.7578 61.5833 32.9508 61.7763C33.1437 61.9692 33.4054 62.0776 33.6783 62.0776H42.8588L43.9094 64.4654H22.2501C21.9772 64.4654 21.7155 64.5738 21.5225 64.7668C21.3295 64.9597 21.2211 65.2215 21.2211 65.4944C21.2211 65.7673 21.3295 66.029 21.5225 66.2219C21.7155 66.4149 21.9772 66.5233 22.2501 66.5233H48.0382C48.3111 66.5233 48.5728 66.4149 48.7658 66.2219C48.9587 66.029 49.0671 65.7673 49.0671 65.4944C49.0671 65.2215 48.9587 64.9597 48.7658 64.7668C48.5728 64.5738 48.3111 64.4654 48.0382 64.4654H46.1578L44.5592 60.8323V56.4353H65.6277C68.0387 56.4353 70.0002 54.4739 70.0002 52.0629V7.98532C70 5.57452 68.0385 3.61304 65.6277 3.61304Z" fill="#4078F6" fill-opacity="0.8"/>
<path d="M33.6783 46.4099C33.4054 46.4099 33.1437 46.5183 32.9507 46.7113C32.7578 46.9042 32.6494 47.166 32.6494 47.4389C32.6494 47.7118 32.7578 47.9735 32.9507 48.1665C33.1437 48.3594 33.4054 48.4678 33.6783 48.4678H64.8552C65.1281 48.4678 65.3898 48.3594 65.5827 48.1665C65.7757 47.9735 65.8841 47.7118 65.8841 47.4389V8.75785C65.8841 8.48495 65.7757 8.22323 65.5827 8.03026C65.3898 7.83729 65.1281 7.72888 64.8552 7.72888H61.6437C61.3708 7.72888 61.1091 7.83729 60.9161 8.03026C60.7231 8.22323 60.6147 8.48495 60.6147 8.75785C60.6147 9.03075 60.7231 9.29247 60.9161 9.48544C61.1091 9.67841 61.3708 9.78681 61.6437 9.78681H63.8262V46.4099H33.6783ZM57.2587 7.72888H33.6783C33.4054 7.72888 33.1437 7.83729 32.9507 8.03026C32.7578 8.22323 32.6494 8.48495 32.6494 8.75785C32.6494 9.03075 32.7578 9.29247 32.9507 9.48544C33.1437 9.67841 33.4054 9.78681 33.6783 9.78681H57.2587C57.5315 9.78681 57.7933 9.67841 57.9862 9.48544C58.1792 9.29247 58.2876 9.03075 58.2876 8.75785C58.2876 8.48495 58.1792 8.22323 57.9862 8.03026C57.7933 7.83729 57.5315 7.72888 57.2587 7.72888Z" fill="#4078F6" fill-opacity="0.8"/>
<path d="M35.0448 52.6992C35.7995 52.6992 36.4113 52.0875 36.4113 51.3328C36.4113 50.5781 35.7995 49.9663 35.0448 49.9663C34.2901 49.9663 33.6783 50.5781 33.6783 51.3328C33.6783 52.0875 34.2901 52.6992 35.0448 52.6992Z" fill="#4078F6" fill-opacity="0.8"/>
<path d="M23.0099 57.4724C23.0099 58.5237 23.8651 59.3789 24.9163 59.3789H29.0985C29.3714 59.3789 29.6331 59.2705 29.8261 59.0775C30.019 58.8845 30.1274 58.6228 30.1274 58.3499C30.1274 58.077 30.019 57.8153 29.8261 57.6223C29.6331 57.4294 29.3714 57.3209 29.0985 57.3209H25.0677V54.3619C25.0677 54.1188 24.9816 53.8835 24.8247 53.6978C24.6678 53.5121 24.4502 53.3879 24.2105 53.3474C20.9035 52.7872 17.8372 51.5169 15.0968 49.5719C14.8987 49.4312 14.6571 49.3652 14.4149 49.3857C14.1727 49.4061 13.9456 49.5116 13.7737 49.6834L11.681 51.7762L7.60255 47.6979L9.69533 45.605C9.86717 45.4331 9.97263 45.206 9.99305 44.9638C10.0135 44.7216 9.94751 44.48 9.80687 44.2817C7.86199 41.5417 6.59169 38.4755 6.03139 35.1684C5.99078 34.9287 5.86661 34.7111 5.68091 34.5542C5.4952 34.3973 5.25994 34.3112 5.01683 34.3112H2.05793V28.5435H5.01724C5.26036 28.5435 5.49563 28.4574 5.68135 28.3005C5.86706 28.1436 5.99121 27.926 6.0318 27.6863C6.59197 24.3792 7.86226 21.313 9.80728 18.573C9.94797 18.3748 10.014 18.1331 9.99354 17.8909C9.97313 17.6487 9.86763 17.4216 9.69574 17.2497L7.60296 15.1569L11.6814 11.0787L13.7741 13.1714C13.946 13.3433 14.1732 13.4488 14.4154 13.4692C14.6576 13.4896 14.8992 13.4236 15.0974 13.283C17.8376 11.338 20.9038 10.0677 24.2109 9.50751C24.4506 9.4669 24.6682 9.34273 24.8251 9.15703C24.982 8.97132 25.0681 8.73606 25.0681 8.49295V5.53364H29.0989C29.3718 5.53364 29.6335 5.42523 29.8265 5.23226C30.0194 5.03929 30.1278 4.77757 30.1278 4.50467C30.1278 4.23178 30.0194 3.97005 29.8265 3.77709C29.6335 3.58412 29.3718 3.47571 29.0989 3.47571H24.9167C23.8654 3.47571 23.0103 4.33098 23.0103 5.38231V7.64C20.037 8.25697 17.169 9.44508 14.6265 11.1132L13.0293 9.51642C12.8527 9.33881 12.6426 9.19801 12.4111 9.10216C12.1797 9.00631 11.9316 8.95733 11.6811 8.95804C11.4306 8.95733 11.1825 9.00632 10.9511 9.10217C10.7197 9.19802 10.5096 9.33882 10.333 9.51642L6.04071 13.8089C5.29739 14.5522 5.29739 15.7617 6.04071 16.5052L7.63753 18.102C5.96937 20.6445 4.78126 23.5124 4.16429 26.4856H1.90661C0.855276 26.4856 0 27.341 0 28.3922V34.4625C0 35.5139 0.855276 36.3691 1.90661 36.3691H4.16429C4.78126 39.3424 5.96937 42.2104 7.63753 44.7527L6.04071 46.3497C5.29739 47.093 5.29739 48.3025 6.04071 49.046L10.3331 53.3384C10.6933 53.6986 11.172 53.8968 11.6812 53.8968C12.1905 53.8968 12.6693 53.6986 13.0295 53.3384L14.6263 51.7416C17.1689 53.4098 20.0368 54.5979 23.01 55.2149L23.0099 57.4724Z" fill="#4078F6" fill-opacity="0.8"/>
<path d="M27.9517 14.6887C28.2246 14.6887 28.4863 14.5803 28.6793 14.3873C28.8722 14.1943 28.9806 13.9326 28.9806 13.6597C28.9806 13.3868 28.8722 13.1251 28.6793 12.9321C28.4863 12.7391 28.2246 12.6307 27.9517 12.6307C17.5872 12.6307 9.15506 21.0629 9.15506 31.4273C9.15506 35.233 10.2875 38.8994 12.4301 42.0302C12.5245 42.1685 12.6514 42.2816 12.7995 42.3596C12.9477 42.4377 13.1127 42.4784 13.2801 42.4782C13.4673 42.478 13.651 42.4268 13.8113 42.33C13.9715 42.2332 14.1023 42.0944 14.1896 41.9288C14.2769 41.7631 14.3173 41.5768 14.3065 41.3899C14.2957 41.203 14.2341 41.0225 14.1284 40.868C12.2211 38.081 11.213 34.8166 11.213 31.4273C11.2129 22.1976 18.7218 14.6887 27.9517 14.6887ZM15.5511 45.5522C18.9796 48.5646 23.3878 50.2254 27.9517 50.2241C28.2246 50.2241 28.4863 50.1157 28.6793 49.9227C28.8722 49.7297 28.9806 49.468 28.9806 49.1951C28.9806 48.9222 28.8722 48.6605 28.6793 48.4675C28.4863 48.2746 28.2246 48.1661 27.9517 48.1661C23.8877 48.1674 19.9623 46.6886 16.9093 44.0062C16.7039 43.8293 16.4369 43.7406 16.1664 43.7595C15.896 43.7783 15.6439 43.9031 15.4649 44.1068C15.286 44.3105 15.1946 44.5766 15.2108 44.8472C15.2269 45.1178 15.3492 45.3712 15.5511 45.5522Z" fill="#4078F6" fill-opacity="0.8"/>
<path d="M57.6137 17.4696V14.9963C57.6137 13.9843 56.7904 13.1609 55.7785 13.1609H53.305C52.293 13.1609 51.4697 13.9842 51.4697 14.9963V15.204H42.6532C42.3804 15.204 42.1186 15.3124 41.9257 15.5054L37.3317 20.0994H22.2499C21.977 20.0994 21.7153 20.2078 21.5224 20.4008C21.3294 20.5938 21.221 20.8555 21.221 21.1284C21.221 21.4013 21.3294 21.663 21.5224 21.856C21.7153 22.0489 21.977 22.1573 22.2499 22.1573H37.7578C38.0307 22.1573 38.2925 22.049 38.4854 21.8559L43.0794 17.2619H51.4696V17.4696C51.4696 18.4816 52.2929 19.3049 53.3048 19.3049H55.7783C56.7904 19.305 57.6137 18.4817 57.6137 17.4696ZM55.5558 17.2471H53.5275V15.2188H55.5558V17.2471ZM52.7747 30.238H54.7757C55.7876 30.238 56.6111 29.4147 56.6111 28.4028V26.4018C56.6111 25.3898 55.7878 24.5665 54.7757 24.5665H52.7747C51.8149 24.5665 51.0261 25.3074 50.9471 26.2471H46.3301C46.0572 26.2471 45.7954 26.3555 45.6025 26.5486L42.4254 29.7257H23.3534C23.0805 29.7257 22.8188 29.8341 22.6258 30.0271C22.4328 30.2201 22.3244 30.4818 22.3244 30.7547C22.3244 31.0276 22.4328 31.2893 22.6258 31.4823C22.8188 31.6753 23.0805 31.7837 23.3534 31.7837H42.8516C43.1245 31.7837 43.3863 31.6753 43.5792 31.4822L46.7563 28.3051H50.9394V28.4029C50.9394 29.4147 51.7627 30.238 52.7747 30.238ZM52.9974 26.6242H54.5533V28.1799H52.9974V26.6242ZM57.7224 37.1709H55.7214C54.719 37.1709 53.903 37.979 53.8875 38.9778H49.7107L46.5335 35.8006C46.438 35.705 46.3246 35.6292 46.1998 35.5775C46.0749 35.5258 45.9411 35.4992 45.806 35.4992H26.7427C26.4698 35.4992 26.2081 35.6076 26.0151 35.8006C25.8221 35.9935 25.7137 36.2553 25.7137 36.5282C25.7137 36.8011 25.8221 37.0628 26.0151 37.2557C26.2081 37.4487 26.4698 37.5571 26.7427 37.5571H45.3797L48.5569 40.7343C48.6524 40.8299 48.7658 40.9057 48.8907 40.9574C49.0155 41.0091 49.1493 41.0357 49.2844 41.0357H53.8874C53.9027 42.0345 54.7188 42.8426 55.7212 42.8426H57.7222C58.7342 42.8426 59.5576 42.0193 59.5576 41.0073V39.0063C59.5578 37.9942 58.7345 37.1709 57.7224 37.1709ZM57.4998 40.7846H55.9439V39.2288H57.4998V40.7846Z" fill="#4078F6" fill-opacity="0.8"/>
<path d="M38.4582 27.0357C38.7311 27.0357 38.9928 26.9273 39.1858 26.7343C39.3788 26.5414 39.4872 26.2796 39.4872 26.0067C39.4872 25.7339 39.3788 25.4721 39.1858 25.2792C38.9928 25.0862 38.7311 24.9778 38.4582 24.9778H24.3924C24.1195 24.9778 23.8578 25.0862 23.6648 25.2792C23.4718 25.4721 23.3634 25.7339 23.3634 26.0067C23.3634 26.2796 23.4718 26.5414 23.6648 26.7343C23.8578 26.9273 24.1195 27.0357 24.3924 27.0357H38.4582Z" fill="#4078F6" fill-opacity="0.8"/>
</g>
<defs>
<clipPath id="clip0_39_57">
<rect width="70" height="70" fill="white" transform="translate(0 -0.000366211)"/>
</clipPath>
</defs>
</svg>
