<svg width="70" height="70" viewBox="0 0 70 70" fill="none" xmlns="http://www.w3.org/2000/svg">
<g clip-path="url(#clip0_39_195)">
<path d="M32.5391 50.7892C31.9726 50.7892 31.5137 51.2483 31.5137 51.8145C31.5137 52.3808 31.9726 52.8399 32.5391 52.8399H37.4609C38.0274 52.8399 38.4863 52.3808 38.4863 51.8145C38.4863 51.2483 38.0274 50.7892 37.4609 50.7892H32.5391ZM12.3047 34.8674H19.0827C19.4966 35.9449 20.5397 36.7131 21.7611 36.7131C22.9826 36.7131 24.0256 35.9449 24.4396 34.8674H25.7943C26.3607 34.8674 26.8197 34.4083 26.8197 33.842C26.8197 33.2758 26.3607 32.8167 25.7943 32.8167H24.4396C24.0256 31.7392 22.9826 30.9709 21.7611 30.9709C20.5397 30.9709 19.4966 31.7392 19.0827 32.8167H12.3047C11.7383 32.8167 11.2793 33.2758 11.2793 33.842C11.2793 34.4083 11.7383 34.8674 12.3047 34.8674ZM21.7611 33.0217C22.2135 33.0217 22.5814 33.3896 22.5814 33.842C22.5814 34.2944 22.2135 34.6624 21.7611 34.6624C21.3087 34.6624 20.9408 34.2944 20.9408 33.842C20.9408 33.3896 21.3087 33.0217 21.7611 33.0217ZM12.3047 28.9885H13.6139C14.0279 30.066 15.0709 30.8342 16.2924 30.8342C17.5138 30.8342 18.5568 30.066 18.9708 28.9885H25.7943C26.3607 28.9885 26.8197 28.5294 26.8197 27.9631C26.8197 27.3968 26.3607 26.9377 25.7943 26.9377H18.9708C18.5568 25.8603 17.5138 25.092 16.2924 25.092C15.0709 25.092 14.0279 25.8603 13.6139 26.9377H12.3047C11.7383 26.9377 11.2793 27.3968 11.2793 27.9631C11.2793 28.5294 11.7383 28.9885 12.3047 28.9885ZM16.2924 27.1428C16.7448 27.1428 17.1127 27.5107 17.1127 27.9631C17.1127 28.4155 16.7448 28.7834 16.2924 28.7834C15.84 28.7834 15.4721 28.4155 15.4721 27.9631C15.4721 27.5107 15.84 27.1428 16.2924 27.1428Z" fill="#4078F6" fill-opacity="0.8"/>
<path d="M25.9994 19.5549C26.5657 19.5549 27.0248 19.0958 27.0248 18.5295C27.0248 17.9632 26.5657 17.5042 25.9994 17.5042C25.4331 17.5042 24.974 17.9632 24.974 18.5295C24.974 19.0958 25.4331 19.5549 25.9994 19.5549Z" fill="#4078F6" fill-opacity="0.8"/>
<path d="M23.1738 19.5549C23.7401 19.5549 24.1992 19.0958 24.1992 18.5295C24.1992 17.9632 23.7401 17.5042 23.1738 17.5042C22.6075 17.5042 22.1484 17.9632 22.1484 18.5295C22.1484 19.0958 22.6075 19.5549 23.1738 19.5549Z" fill="#4078F6" fill-opacity="0.8"/>
<path d="M20.3483 19.5549C20.9146 19.5549 21.3737 19.0958 21.3737 18.5295C21.3737 17.9632 20.9146 17.5042 20.3483 17.5042C19.782 17.5042 19.3229 17.9632 19.3229 18.5295C19.3229 19.0958 19.782 19.5549 20.3483 19.5549Z" fill="#4078F6" fill-opacity="0.8"/>
<path d="M66.9238 6.9015H66.5398L66.8262 6.61507C67.6841 5.75716 67.6841 4.36112 66.8262 3.50321L64.5816 1.25856C63.7237 0.400791 62.3278 0.400791 61.4697 1.25856L55.8272 6.90136H3.07617C1.38004 6.90136 0 8.28126 0 9.97753V52.5605C0 54.6337 1.68656 56.3203 3.75977 56.3203H28.0472V63.5739H23.1055C21.7863 63.5739 20.7129 64.6473 20.7129 65.9665V66.991C20.7129 68.3102 21.7863 69.3836 23.1055 69.3836H46.8945C48.2137 69.3836 49.2871 68.3102 49.2871 66.991V65.9665C49.2871 64.6473 48.2137 63.5739 46.8945 63.5739H41.9528V56.3203H52.9102C53.4766 56.3203 53.9355 55.8612 53.9355 55.2949C53.9355 54.7286 53.4766 54.2695 52.9102 54.2695H3.75977C2.81736 54.2695 2.05078 53.5029 2.05078 52.5605V49.5253H67.9492V52.5605C67.9492 53.5029 67.1826 54.2695 66.2402 54.2695H57.6953C57.1289 54.2695 56.6699 54.7286 56.6699 55.2949C56.6699 55.8612 57.1289 56.3203 57.6953 56.3203H66.2402C68.3134 56.3203 70 54.6337 70 52.5605V9.97767C70 8.28153 68.62 6.9015 66.9238 6.9015ZM46.8945 65.6248C47.0831 65.6248 47.2363 65.7782 47.2363 65.9666V66.9912C47.2363 67.1796 47.0831 67.333 46.8945 67.333H23.1055C23.0149 67.3329 22.928 67.2968 22.8639 67.2327C22.7998 67.1687 22.7638 67.0818 22.7637 66.9912V65.9666C22.7637 65.7782 22.9169 65.6248 23.1055 65.6248H46.8945ZM30.0979 56.3205H39.9022V63.5742H30.0979V56.3205ZM62.9199 2.70888C62.948 2.68086 62.986 2.66512 63.0257 2.66512C63.0654 2.66512 63.1034 2.68086 63.1315 2.70888L65.376 4.95339C65.4041 4.98146 65.4198 5.01952 65.4198 5.05921C65.4198 5.0989 65.4041 5.13696 65.376 5.16503L63.2343 7.30673L60.7782 4.85058L62.9199 2.70888ZM59.328 6.30075L61.784 8.75691L61.0688 9.47208L58.6128 7.01593L59.328 6.30075ZM57.1627 8.4661L59.6188 10.9223L47.4849 23.0562L45.0287 20.6L57.1627 8.4661ZM55.6445 17.8408C57.0392 17.8408 58.1738 18.9754 58.1738 20.3701C58.1738 21.7647 57.0392 22.8994 55.6445 22.8994C54.2499 22.8994 53.1152 21.7647 53.1152 20.3701C53.1152 20.3538 53.1174 20.3381 53.1177 20.3218L55.5967 17.8432C55.6127 17.843 55.6284 17.8408 55.6445 17.8408ZM45.7043 24.1759L42.6695 25.4154L43.909 22.3807L45.7043 24.1759ZM67.9492 47.4748H2.05078V9.97767C2.05078 9.41233 2.5107 8.95228 3.07617 8.95228H53.7765L52.213 10.5158H17.3633C16.7969 10.5158 16.3379 10.9749 16.3379 11.5412C16.3379 12.1075 16.7969 12.5666 17.3633 12.5666H50.1624L42.9298 19.7995C42.726 20.0046 42.5648 20.248 42.4555 20.5157L40.1651 26.1233C40.0622 26.3745 40.0359 26.6505 40.0896 26.9166C40.1433 27.1826 40.2745 27.4269 40.4667 27.6185C40.6583 27.8107 40.9026 27.9419 41.1686 27.9956C41.4347 28.0492 41.7107 28.0228 41.9619 27.9198L47.5694 25.6295C47.8293 25.5231 48.0663 25.3677 48.2675 25.1716L51.3868 22.0527C52.0588 23.7478 53.7131 24.9503 55.6447 24.9503C58.1701 24.9503 60.2247 22.8957 60.2247 20.3702C60.2247 18.4389 59.0226 16.7848 57.3277 16.1126L60.874 12.5667H64.3349V43.8607H63.7915L60.0754 37.4244C59.9385 37.1908 59.7147 37.0208 59.453 36.9516C59.1912 36.8824 58.9126 36.9196 58.6782 37.0549C58.4437 37.1903 58.2722 37.413 58.2013 37.6743C58.1303 37.9356 58.1656 38.2144 58.2995 38.4498L61.4235 43.8607H47.0995L45.5632 41.1997L52.7252 28.7948L55.9068 34.3057C55.9736 34.4232 56.063 34.5264 56.1699 34.6093C56.2768 34.6921 56.399 34.753 56.5295 34.7884C56.66 34.8239 56.7962 34.8331 56.9303 34.8157C57.0644 34.7983 57.1937 34.7545 57.3109 34.6869C57.428 34.6193 57.5305 34.5292 57.6127 34.4217C57.6948 34.3143 57.7549 34.1917 57.7895 34.061C57.824 33.9302 57.8324 33.7939 57.8141 33.66C57.7958 33.526 57.7511 33.3969 57.6827 33.2803L54.2884 27.4012C53.9621 26.836 53.3777 26.4986 52.725 26.4986C52.0723 26.4986 51.4879 26.836 51.1615 27.4012L44.3789 39.1491L35.6762 24.0757C35.3499 23.5105 34.7655 23.1731 34.1127 23.1731C33.4601 23.1731 32.8757 23.5105 32.5493 24.0757L30.2373 28.0803V17.0891C30.2373 15.7699 29.1639 14.6965 27.8447 14.6965H10.2539C8.93471 14.6965 7.86133 15.7699 7.86133 17.0891V39.511C7.86133 40.4534 8.62791 41.22 9.57031 41.22H22.6514L21.1267 43.8608H5.66522V12.5666H12.5781C13.1446 12.5666 13.6035 12.1075 13.6035 11.5412C13.6035 10.9749 13.1446 10.5158 12.5781 10.5158H5.32342C4.38102 10.5158 3.61443 11.2824 3.61443 12.2248V44.2023C3.61443 45.1447 4.38102 45.9113 5.32342 45.9113H64.6767C65.6191 45.9113 66.3857 45.1447 66.3857 44.2023V12.2248C66.3857 11.2824 65.6191 10.5158 64.6767 10.5158H62.9251L64.4889 8.95228H66.9238C67.4893 8.95228 67.9492 9.41233 67.9492 9.97767V47.4748ZM28.1869 22.7678V39.1689H9.91211V22.7678H28.1869ZM9.91211 20.7171V17.0888C9.91211 16.9004 10.0654 16.747 10.2539 16.747H27.8451C28.0336 16.747 28.1869 16.9004 28.1869 17.0888V20.7171H9.91211ZM25.0195 41.2197H28.5287C29.4711 41.2197 30.2377 40.4531 30.2377 39.5107V37.3386C30.4942 37.4617 30.7798 37.5283 31.0789 37.5283C31.7789 37.5283 32.4056 37.1662 32.7555 36.5602L34.5006 33.5377C34.5533 33.4464 34.634 33.4271 34.6921 33.4271C34.7505 33.4271 34.8312 33.4464 34.8838 33.5377L35.9596 35.4011C36.3096 36.0074 36.9365 36.3693 37.6366 36.3693C38.3366 36.3693 38.9635 36.0074 39.3133 35.4012L39.5805 34.9385L44.7315 43.8604H23.4948L25.0195 41.2197ZM30.2377 33.9062V32.1816L34.1132 25.4691L38.3964 32.8878L37.6365 34.2038L36.6598 32.5122C36.2491 31.8009 35.5135 31.3762 34.692 31.3762C33.8706 31.3762 33.135 31.8009 32.7243 32.5122L31.0785 35.3628L30.2377 33.9062Z" fill="#4078F6" fill-opacity="0.8"/>
</g>
<defs>
<clipPath id="clip0_39_195">
<rect width="70" height="70" fill="white" transform="translate(0 -0.000488281)"/>
</clipPath>
</defs>
</svg>
