<svg width="70" height="70" viewBox="0 0 70 70" fill="none" xmlns="http://www.w3.org/2000/svg">
<path d="M25.4403 17.1745C27.5857 17.1745 29.3312 15.429 29.3312 13.2836C29.3312 12.5974 29.152 11.9525 28.8389 11.3922L33.1358 7.23625C33.7357 7.59392 34.4212 7.78243 35.1196 7.78176C35.9668 7.78258 36.7908 7.50534 37.4653 6.99262L49.0006 15.8806C48.8073 16.3493 48.7079 16.8515 48.7082 17.3586C48.7082 19.504 50.4537 21.2495 52.5991 21.2495C54.7445 21.2495 56.49 19.504 56.49 17.3586C56.4906 16.6609 56.3025 15.9761 55.9455 15.3766L59.4655 11.7413C60.039 12.058 60.6836 12.2239 61.3388 12.2232C63.4842 12.2232 65.2297 10.4777 65.2297 8.33232C65.2297 6.18693 63.4842 4.44145 61.3388 4.44145C59.1934 4.44145 57.448 6.18693 57.448 8.33232C57.4473 9.03003 57.6354 9.71492 57.9925 10.3143L54.4725 13.9497C53.899 13.6329 53.2543 13.467 52.5991 13.4676C51.7519 13.4669 50.9279 13.7441 50.2534 14.2568L38.718 5.36895C38.9114 4.90018 39.0108 4.39797 39.0105 3.89088C39.0105 1.74549 37.265 0 35.1196 0C32.9742 0 31.2287 1.74549 31.2287 3.89088C31.2287 4.56887 31.4034 5.2068 31.7097 5.76242L27.4041 9.92674C26.809 9.57655 26.1309 9.39215 25.4403 9.39271C23.2949 9.39271 21.5494 11.1382 21.5494 13.2836C21.5494 15.429 23.2949 17.1745 25.4403 17.1745ZM61.3388 6.49223C62.3534 6.49223 63.1789 7.31773 63.1789 8.33232C63.1789 9.34691 62.3534 10.1724 61.3388 10.1724C60.3242 10.1724 59.4987 9.34691 59.4987 8.33232C59.4987 7.31773 60.3242 6.49223 61.3388 6.49223ZM52.5991 15.5185C53.6137 15.5185 54.4392 16.344 54.4392 17.3586C54.4392 18.3732 53.6137 19.1987 52.5991 19.1987C51.5845 19.1987 50.759 18.3732 50.759 17.3586C50.759 16.344 51.5845 15.5185 52.5991 15.5185ZM35.1196 2.05078C36.1342 2.05078 36.9597 2.87629 36.9597 3.89088C36.9597 4.90547 36.1342 5.73098 35.1196 5.73098C34.105 5.73098 33.2795 4.90547 33.2795 3.89088C33.2795 2.87629 34.105 2.05078 35.1196 2.05078ZM25.4403 11.4435C26.4549 11.4435 27.2804 12.269 27.2804 13.2836C27.2804 14.2982 26.4549 15.1237 25.4403 15.1237C24.4257 15.1237 23.6002 14.2982 23.6002 13.2836C23.6002 12.269 24.4257 11.4435 25.4403 11.4435Z" fill="#4078F6" fill-opacity="0.8"/>
<path d="M67.0698 48.5444H65.2297V40.1954C65.2297 39.9234 65.1217 39.6626 64.9294 39.4703C64.7371 39.278 64.4763 39.17 64.2043 39.17C63.9324 39.17 63.6716 39.278 63.4793 39.4703C63.287 39.6626 63.1789 39.9234 63.1789 40.1954V48.5444H59.4987V21.1064H63.1789V35.4102C63.1789 35.6822 63.287 35.943 63.4793 36.1353C63.6716 36.3276 63.9324 36.4356 64.2043 36.4356C64.4763 36.4356 64.7371 36.3276 64.9294 36.1353C65.1217 35.943 65.2297 35.6822 65.2297 35.4102V20.5412C65.2297 19.722 64.5632 19.0556 63.7441 19.0556H58.9335C58.1143 19.0556 57.448 19.7221 57.448 20.5412V48.5444H56.49V26.8453C56.49 26.0261 55.8235 25.3597 55.0044 25.3597H50.1938C49.3746 25.3597 48.7082 26.0262 48.7082 26.8453V48.5444H47.7502V21.2576C47.7502 20.4384 47.0837 19.772 46.2646 19.772H41.4541C40.6348 19.772 39.9685 20.4385 39.9685 21.2576V35.371C39.6606 35.0197 39.341 34.6788 39.0105 34.3487V24.8829C39.0105 24.6109 38.9025 24.3501 38.7102 24.1578C38.5179 23.9655 38.257 23.8575 37.9851 23.8575C37.7131 23.8575 37.4523 23.9655 37.26 24.1578C37.0677 24.3501 36.9597 24.6109 36.9597 24.8829V32.5494C35.8144 31.6699 34.5811 30.9113 33.2795 30.2857V16.9514H36.9597V20.0977C36.9597 20.3697 37.0677 20.6305 37.26 20.8228C37.4523 21.0151 37.7131 21.1231 37.9851 21.1231C38.257 21.1231 38.5179 21.0151 38.7102 20.8228C38.9025 20.6305 39.0105 20.3697 39.0105 20.0977V16.3863C39.0105 15.5671 38.344 14.9008 37.5249 14.9008H32.7143C31.8951 14.9008 31.2287 15.5673 31.2287 16.3863V29.4307C30.7211 29.2509 30.2067 29.0909 29.6867 28.9512C29.5338 28.6755 29.3099 28.4457 29.0383 28.2857C28.7667 28.1257 28.4572 28.0412 28.1419 28.0412H25.7031C25.5499 27.5815 25.3643 27.1333 25.1477 26.6999L26.8714 24.9762C27.5015 24.3461 27.5642 23.3437 27.0171 22.6446C26.3125 21.7447 25.5014 20.9335 24.6014 20.229C23.9024 19.6818 22.9 19.7444 22.2698 20.3746L20.5462 22.0982C20.1127 21.8817 19.6644 21.6961 19.2047 21.5428V19.1042C19.2047 18.2129 18.5404 17.4599 17.6594 17.3525C16.5245 17.2151 15.3771 17.2151 14.2422 17.3525C13.3614 17.4599 12.697 18.2129 12.697 19.1042V21.5428C12.2374 21.6961 11.7891 21.8817 11.3556 22.0982L9.63195 20.3746C9.00181 19.7444 7.99939 19.6818 7.30034 20.229C6.40033 20.9335 5.58917 21.7446 4.88466 22.6446C4.33751 23.3435 4.40013 24.346 5.03027 24.9764L6.75388 26.7C6.53736 27.1335 6.35178 27.5817 6.19853 28.0413H3.75988C2.86847 28.0413 2.11542 28.7057 2.00823 29.5865C1.9393 30.1535 1.90469 30.7241 1.9046 31.2952C1.9046 31.865 1.93947 32.4399 2.0081 33.0037C2.11529 33.8847 2.86833 34.5492 3.75974 34.5492H6.19839C6.35158 35.0088 6.53716 35.4571 6.75374 35.8905L5.03013 37.6141C4.39999 38.2444 4.33751 39.2468 4.88466 39.9457C5.01277 40.1085 5.14442 40.2684 5.2795 40.4255C4.06189 43.0734 3.38062 46.017 3.38062 49.1175C3.38048 60.6321 12.7485 70.0001 24.2632 70.0001C28.8632 70.0001 33.2269 68.5324 36.8826 65.7556C37.0992 65.5911 37.2415 65.3473 37.2783 65.0779C37.3151 64.8084 37.2434 64.5354 37.0789 64.3188C36.9144 64.1023 36.6706 63.9599 36.4012 63.9231C36.1317 63.8863 35.8587 63.958 35.6421 64.1225C32.3463 66.626 28.4115 67.9493 24.2632 67.9493C13.8793 67.9493 5.43126 59.5013 5.43126 49.1174C5.43126 46.5926 5.93152 44.1828 6.83687 41.9805C6.9889 42.1104 7.14271 42.2382 7.30034 42.3614C7.87538 42.8115 8.65523 42.8481 9.26472 42.4965C8.33963 44.5811 7.86249 46.8367 7.86417 49.1174C7.86417 58.1599 15.2207 65.5165 24.2633 65.5165C33.3059 65.5165 40.6625 58.1598 40.6625 49.1174C40.6625 41.9743 36.0702 35.8869 29.6842 33.6433C29.7949 33.4457 29.866 33.2284 29.8935 33.0035C29.9623 32.4389 29.9972 31.8641 29.9972 31.295C29.9972 31.256 29.9957 31.2169 29.9954 31.1779C37.5851 33.6087 43.0952 40.7312 43.0952 49.1172C43.0952 53.4187 41.6061 57.6255 38.9023 60.9627C38.8176 61.0673 38.7542 61.1876 38.7159 61.3167C38.6776 61.4458 38.6651 61.5812 38.6792 61.7151C38.6932 61.849 38.7335 61.9789 38.7977 62.0972C38.8619 62.2156 38.9488 62.3201 39.0534 62.4049C39.158 62.4897 39.2783 62.553 39.4074 62.5913C39.5365 62.6296 39.6719 62.6421 39.8058 62.6281C39.9398 62.6141 40.0696 62.5738 40.188 62.5096C40.3063 62.4454 40.4109 62.3585 40.4957 62.2538C43.1838 58.9361 44.7883 54.8434 45.0921 50.5951H67.07C67.2046 50.5951 67.3379 50.5686 67.4623 50.5171C67.5868 50.4655 67.6998 50.39 67.795 50.2948C67.8902 50.1995 67.9657 50.0865 68.0173 49.9621C68.0688 49.8377 68.0953 49.7043 68.0953 49.5697C68.0953 49.435 68.0687 49.3017 68.0172 49.1773C67.9657 49.0529 67.8901 48.9399 67.7949 48.8447C67.6997 48.7494 67.5866 48.6739 67.4622 48.6224C67.3378 48.5709 67.2045 48.5444 67.0698 48.5444ZM8.36251 40.585C7.74017 40.0759 7.17019 39.5059 6.66105 38.8835L8.35226 37.1923C8.90118 36.6434 9.02587 35.8101 8.66261 35.1185C8.43183 34.6789 8.24155 34.2193 8.09413 33.7453C7.86226 32.9995 7.18482 32.4984 6.40839 32.4984H4.01554C3.93568 31.6983 3.93568 30.8922 4.01554 30.0921H6.40839C7.18468 30.0921 7.86212 29.5911 8.09413 28.8451C8.2416 28.3711 8.43188 27.9115 8.66261 27.4719C9.02587 26.7802 8.90105 25.9469 8.35212 25.398L6.66091 23.7068C7.17002 23.0844 7.74 22.5145 8.36238 22.0053L10.0536 23.6966C10.6024 24.2453 11.4355 24.3702 12.1275 24.0069C12.5671 23.7762 13.0267 23.5859 13.5008 23.4384C14.2466 23.2064 14.7477 22.5291 14.7477 21.7527V19.3598C15.5478 19.2803 16.3538 19.2803 17.1539 19.3598V21.7527C17.1539 22.529 17.655 23.2064 18.4008 23.4384C18.8749 23.586 19.3345 23.7762 19.7742 24.0069C20.4658 24.3704 21.2994 24.2455 21.848 23.6966L23.5393 22.0053C24.1616 22.5145 24.7316 23.0844 25.2407 23.7068L23.5494 25.3982C23.0004 25.9469 22.8758 26.7804 23.239 27.472C23.4698 27.9116 23.66 28.3712 23.8075 28.8452C24.0395 29.591 24.7168 30.0921 25.4932 30.0921H27.8861C27.926 30.4915 27.9461 30.8951 27.9461 31.2952C27.946 31.697 27.926 32.0986 27.8861 32.4984H25.4932C24.7168 32.4984 24.0395 32.9995 23.8075 33.7453C23.66 34.2193 23.4698 34.679 23.239 35.1186C22.8758 35.8102 23.0004 36.6437 23.5494 37.1925L25.2407 38.8838C24.7315 39.5061 24.1616 40.0761 23.5393 40.5853L21.848 38.8941C21.2991 38.345 20.4657 38.2205 19.7743 38.5837C19.3347 38.8144 18.8751 39.0047 18.4011 39.1522C17.6551 39.3841 17.1541 40.0615 17.1541 40.8379V43.2305C16.354 43.3101 15.5479 43.3101 14.7478 43.2305V40.8377C14.7478 40.0612 14.2466 39.3838 13.5009 39.1519C13.0269 39.0044 12.5673 38.8141 12.1276 38.5835C11.4361 38.2203 10.6026 38.3449 10.0537 38.8938L8.36251 40.585ZM30.5295 36.2129L30.4783 36.3018C30.3444 36.5371 30.3091 36.8159 30.3801 37.0772C30.451 37.3385 30.6225 37.5612 30.857 37.6966C31.0914 37.832 31.37 37.8691 31.6318 37.7999C31.8935 37.7307 32.1173 37.5607 32.2543 37.3271L32.304 37.241C33.8131 38.2661 35.1146 39.5674 36.1399 41.0762L36.0534 41.1261C35.8198 41.2631 35.6499 41.4869 35.5806 41.7486C35.5114 42.0104 35.5486 42.2889 35.684 42.5234C35.8194 42.7579 36.042 42.9294 36.3033 43.0003C36.5646 43.0712 36.8434 43.036 37.0788 42.9021L37.1682 42.8504C37.9687 44.4913 38.4462 46.2707 38.5746 48.0918H35.8203C35.5483 48.0918 35.2875 48.1999 35.0952 48.3922C34.9029 48.5845 34.7949 48.8453 34.7949 49.1172C34.7949 49.3892 34.9029 49.65 35.0952 49.8423C35.2875 50.0346 35.5483 50.1426 35.8203 50.1426H38.5745C38.4462 51.9638 37.9689 53.7432 37.1686 55.3841L37.0786 55.3322C36.962 55.2648 36.8333 55.2211 36.6998 55.2035C36.5663 55.1859 36.4306 55.1948 36.3005 55.2296C36.1705 55.2645 36.0485 55.3246 35.9417 55.4066C35.8349 55.4886 35.7453 55.5908 35.678 55.7075C35.542 55.943 35.5051 56.2229 35.5755 56.4855C35.6459 56.7482 35.8178 56.9722 36.0533 57.1082L36.1405 57.1586C35.1152 58.6677 33.8137 59.9693 32.3046 60.9947L32.2543 60.9074C32.1173 60.6738 31.8935 60.5039 31.6318 60.4347C31.37 60.3655 31.0914 60.4026 30.857 60.538C30.6225 60.6734 30.451 60.896 30.3801 61.1574C30.3091 61.4187 30.3444 61.6974 30.4783 61.9328L30.5302 62.0228C28.8893 62.8231 27.1098 63.3004 25.2886 63.4287V60.7032C25.2886 60.4312 25.1805 60.1704 24.9882 59.9781C24.7959 59.7858 24.5351 59.6778 24.2632 59.6778C23.9912 59.6778 23.7304 59.7858 23.5381 59.9781C23.3458 60.1704 23.2378 60.4312 23.2378 60.7032V63.4288C21.4166 63.3005 19.6372 62.8232 17.9963 62.0229L18.0482 61.933C18.1842 61.6975 18.221 61.4176 18.1507 61.1549C18.0803 60.8922 17.9084 60.6683 17.6729 60.5323C17.5563 60.4649 17.4276 60.4212 17.2941 60.4036C17.1606 60.386 17.0249 60.3949 16.8948 60.4297C16.7648 60.4646 16.6428 60.5247 16.536 60.6067C16.4292 60.6887 16.3395 60.7909 16.2722 60.9076L16.2219 60.9948C14.7128 59.9695 13.4112 58.6679 12.3859 57.1587L12.4731 57.1083C12.7067 56.9714 12.8766 56.7476 12.9458 56.4858C13.0151 56.224 12.9779 55.9455 12.8425 55.711C12.7071 55.4765 12.4845 55.3051 12.2232 55.2341C11.9619 55.1632 11.6831 55.1985 11.4477 55.3323L11.3577 55.3843C10.5575 53.7433 10.0802 51.9639 9.95187 50.1427H12.7148C12.9868 50.1427 13.2476 50.0347 13.4399 49.8424C13.6322 49.6501 13.7402 49.3893 13.7402 49.1174C13.7402 48.8454 13.6322 48.5846 13.4399 48.3923C13.2476 48.2 12.9868 48.092 12.7148 48.092H9.95433C10.1415 45.4577 11.0418 43.0181 12.4646 40.9654C12.5419 40.9933 12.6191 41.0214 12.697 41.0474V43.486C12.697 44.3773 13.3614 45.1304 14.2424 45.2377C14.8066 45.3063 15.3815 45.3412 15.9509 45.3412C16.5204 45.3412 17.0951 45.3063 17.6597 45.2377C18.5405 45.1304 19.2049 44.3773 19.2049 43.486V41.0474C19.6645 40.8941 20.1128 40.7085 20.5463 40.492L22.2698 42.2157C22.9001 42.8459 23.9025 42.9087 24.6016 42.3614C25.5016 41.6568 26.3128 40.8456 27.0174 39.9456C27.5644 39.2465 27.5018 38.2443 26.8716 37.614L25.148 35.8904C25.3195 35.5464 25.4716 35.1932 25.6034 34.8322C27.3154 34.9912 28.9843 35.459 30.5295 36.2129ZM45.6994 48.5444H45.1377C45.0346 44.7355 43.9058 41.1786 42.0193 38.1388V21.8228H45.6994V48.5444ZM54.4392 48.5444H50.759V27.4104H54.4392V48.5444Z" fill="#4078F6" fill-opacity="0.8"/>
<path d="M23.3815 48.594L19.1179 55.7762C18.9791 56.0101 18.9388 56.2895 19.006 56.553C19.0732 56.8166 19.2423 57.0426 19.4762 57.1815C19.7101 57.3203 19.9895 57.3606 20.253 57.2934C20.5166 57.2262 20.7426 57.0571 20.8815 56.8232L24.6271 50.5132L28.9481 53.0149C29.1833 53.147 29.461 53.1812 29.7211 53.11C29.9812 53.0388 30.2029 52.8681 30.338 52.6347C30.4731 52.4013 30.5109 52.124 30.4431 51.863C30.3753 51.602 30.2074 51.3781 29.9757 51.24L24.777 48.23C24.5433 48.0947 24.2657 48.0571 24.0044 48.1252C23.7432 48.1933 23.5193 48.3618 23.3815 48.594ZM15.9508 38.1586C19.7353 38.1586 22.8144 35.0796 22.8144 31.2951C22.8144 27.5106 19.7353 24.4315 15.9508 24.4315C12.1663 24.4315 9.08728 27.5106 9.08728 31.2951C9.08728 35.0796 12.1663 38.1586 15.9508 38.1586ZM15.9508 26.4823C18.6045 26.4823 20.7636 28.6414 20.7636 31.2951C20.7636 33.9488 18.6045 36.1078 15.9508 36.1078C13.2971 36.1078 11.1381 33.9488 11.1381 31.2951C11.1381 28.6414 13.2971 26.4823 15.9508 26.4823Z" fill="#4078F6" fill-opacity="0.8"/>
<path d="M15.9508 34.3474C17.6338 34.3474 19.0031 32.9782 19.0031 31.295C19.0031 29.612 17.6338 28.2428 15.9508 28.2428C14.2677 28.2428 12.8984 29.612 12.8984 31.295C12.8986 32.9781 14.2678 34.3474 15.9508 34.3474ZM15.9508 30.2936C16.503 30.2936 16.9523 30.7428 16.9523 31.295C16.9523 31.8474 16.503 32.2966 15.9508 32.2966C15.3985 32.2966 14.9492 31.8474 14.9492 31.295C14.9494 30.7428 15.3986 30.2936 15.9508 30.2936ZM49.4565 52.9523C49.2642 52.76 49.0034 52.652 48.7315 52.652C48.4595 52.652 48.1987 52.76 48.0064 52.9523C47.8142 53.1445 47.7062 53.4053 47.7062 53.6773C47.7062 53.9492 47.8142 54.21 48.0064 54.4023L50.6402 57.036L48.0064 59.6698C47.8631 59.8132 47.7654 59.9959 47.7259 60.1948C47.6863 60.3937 47.7066 60.5998 47.7842 60.7872C47.8618 60.9746 47.9932 61.1347 48.1618 61.2474C48.3304 61.36 48.5287 61.4202 48.7315 61.4202C48.8661 61.4204 48.9995 61.3939 49.124 61.3424C49.2484 61.2908 49.3614 61.2152 49.4565 61.1198L52.8153 57.7611C53.0075 57.5688 53.1155 57.308 53.1155 57.036C53.1155 56.7641 53.0075 56.5033 52.8153 56.311L49.4565 52.9523ZM56.5937 52.9523C56.1934 52.5517 55.5442 52.5518 55.1437 52.9523C54.7433 53.3527 54.7433 54.002 55.1437 54.4023L57.7773 57.036L55.1437 59.6698C55.0003 59.8132 54.9027 59.9959 54.8631 60.1948C54.8236 60.3937 54.8439 60.5998 54.9215 60.7872C54.9991 60.9746 55.1305 61.1347 55.2991 61.2474C55.4677 61.36 55.6659 61.4202 55.8687 61.4202C56.0034 61.4204 56.1368 61.3939 56.2612 61.3424C56.3857 61.2908 56.4987 61.2152 56.5937 61.1198L59.9524 57.7611C60.1447 57.5688 60.2527 57.308 60.2527 57.036C60.2527 56.7641 60.1447 56.5033 59.9524 56.311L56.5937 52.9523ZM63.731 52.9523C63.5387 52.76 63.2779 52.652 63.006 52.652C62.7341 52.652 62.4733 52.76 62.281 52.9523C62.0887 53.1445 61.9807 53.4053 61.9807 53.6773C61.9807 53.9492 62.0887 54.21 62.281 54.4023L64.9147 57.036L62.281 59.6698C62.1376 59.8132 62.0399 59.9959 62.0004 60.1948C61.9608 60.3937 61.9811 60.5998 62.0587 60.7872C62.1363 60.9746 62.2678 61.1347 62.4364 61.2474C62.605 61.36 62.8032 61.4202 63.006 61.4202C63.1407 61.4204 63.2741 61.3939 63.3985 61.3424C63.5229 61.2908 63.6359 61.2152 63.731 61.1198L67.0898 57.7611C67.2821 57.5688 67.3901 57.308 67.3901 57.036C67.3901 56.7641 67.2821 56.5033 67.0898 56.311L63.731 52.9523Z" fill="#4078F6" fill-opacity="0.8"/>
</svg>
