<svg width="70" height="70" viewBox="0 0 70 70" fill="none" xmlns="http://www.w3.org/2000/svg">
<path d="M57.566 56.7168C57.294 56.7168 57.0332 56.8248 56.8409 57.0171C56.6486 57.2094 56.5406 57.4703 56.5406 57.7422V67.3828C56.5404 67.5329 56.4807 67.6768 56.3745 67.7829C56.2684 67.8891 56.1245 67.9488 55.9744 67.9489H50.4623V47.756C50.4623 47.484 50.3543 47.2232 50.162 47.0309C49.9697 46.8386 49.7089 46.7306 49.4369 46.7306C49.165 46.7306 48.9042 46.8386 48.7119 47.0309C48.5196 47.2232 48.4115 47.484 48.4115 47.756V67.9491H37.312L40.5308 64.4081C40.8824 64.0211 41.0483 63.47 40.9743 62.9333C40.9729 62.9229 40.9713 62.9125 40.9695 62.9021L37.9039 44.7914L38.7298 43.5481C39.1864 43.8724 39.5382 44.1846 40.1979 44.1846C40.8689 44.1846 41.4963 43.8091 41.805 43.1908V43.1907L45.0384 36.7102L52.4043 39.5629C52.6707 39.6771 56.5403 41.4198 56.5403 46.0212V52.9569C56.5403 53.2289 56.6483 53.4897 56.8406 53.682C57.0329 53.8743 57.2937 53.9823 57.5657 53.9823C57.8376 53.9823 58.0984 53.8743 58.2907 53.682C58.483 53.4897 58.5911 53.2289 58.5911 52.9569V46.0212C58.5911 39.9585 53.4 37.7547 53.1791 37.6638C53.1726 37.6611 53.1661 37.6585 53.1595 37.656L40.9002 32.9083V30.0331C42.8474 28.5188 44.1975 26.2741 44.5364 23.713C45.5072 23.6447 46.4081 23.2821 47.1438 22.6495C47.6186 22.2411 47.9995 21.7349 48.2605 21.1656C48.5214 20.5963 48.6563 19.9773 48.6557 19.351C48.6563 18.3067 48.2808 17.2971 47.5979 16.5069V12.7084C47.5978 5.70104 41.8969 0 34.8895 0C27.8821 0 22.1812 5.70104 22.1812 12.7084V16.6064C21.4964 17.3826 21.124 18.3379 21.124 19.3509C21.124 20.6212 21.675 21.8235 22.636 22.6498C23.3711 23.2821 24.2714 23.6443 25.242 23.7128C25.5836 26.3218 26.9731 28.6502 29.0861 30.1849V32.9083L16.84 37.6559C16.8336 37.6584 16.8272 37.6609 16.8208 37.6636C16.5997 37.7545 11.4088 39.9582 11.4088 46.0209V67.3825C11.4088 68.8256 12.5828 69.9996 14.0258 69.9996H23.7953C24.0673 69.9996 24.3281 69.8916 24.5204 69.6993C24.7127 69.507 24.8207 69.2462 24.8207 68.9742C24.8207 68.7022 24.7127 68.4414 24.5204 68.2491C24.3281 68.0568 24.0673 67.9488 23.7953 67.9488H21.5891V47.756C21.5891 47.484 21.4811 47.2232 21.2888 47.0309C21.0965 46.8386 20.8357 46.7306 20.5637 46.7306C20.2918 46.7306 20.031 46.8386 19.8387 47.0309C19.6464 47.2232 19.5383 47.484 19.5383 47.756V67.9491H14.026C13.8759 67.9489 13.732 67.8892 13.6258 67.7831C13.5197 67.6769 13.46 67.533 13.4598 67.3829V46.021C13.4598 41.4042 17.3553 39.6655 17.5946 39.5633L24.9547 36.7099L28.1884 43.1907C28.3374 43.4894 28.5668 43.7406 28.8507 43.9162C29.1346 44.0918 29.4618 44.1847 29.7956 44.1846C30.452 44.1846 30.8004 43.8772 31.2637 43.5481L32.0896 44.7914L29.0243 62.9022C29.0225 62.9125 29.021 62.9228 29.0195 62.9331C28.9454 63.4696 29.1112 64.021 29.463 64.4082L32.6818 67.9492H28.5809C28.309 67.9492 28.0481 68.0573 27.8558 68.2495C27.6635 68.4418 27.5555 68.7027 27.5555 68.9746C27.5555 69.2466 27.6635 69.5074 27.8558 69.6997C28.0481 69.892 28.309 70 28.5809 70H55.9746C57.4176 70 58.5916 68.8259 58.5916 67.3829V57.7423C58.5916 57.4704 58.4835 57.2095 58.2911 57.0172C58.0988 56.8249 57.8379 56.7169 57.566 56.7168ZM43.1177 35.9665L40.1031 42.0081C40.0282 41.9549 38.4307 40.8198 36.4778 39.4331L40.2013 34.837L43.1177 35.9665ZM37.0566 42.36L36.2749 43.5367H33.7178L32.9361 42.36L34.9964 40.8967L37.0566 42.36ZM31.1367 33.2392V31.3202C32.3825 31.8224 33.7139 32.0552 35.0141 32.0552C36.3584 32.0552 37.6768 31.7687 38.8493 31.256V33.2475L34.9964 38.0033L31.1367 33.2392ZM46.6048 19.351C46.6052 19.682 46.5341 20.0092 46.3963 20.3101C46.2585 20.611 46.0573 20.8786 45.8065 21.0946C45.4711 21.3831 45.066 21.5675 44.6224 21.6397V17.0628C45.8009 17.2542 46.6048 18.2317 46.6048 19.351ZM25.1572 21.6397C23.9653 21.4463 23.1748 20.4608 23.1748 19.3509C23.1748 18.2547 24.0835 17.3625 25.1572 17.1143V21.6397ZM25.2123 15.0248C24.8857 15.0623 24.5113 15.1508 24.2323 15.2456V12.7084C24.2323 6.83184 29.0131 2.05092 34.8897 2.05092C40.7662 2.05092 45.547 6.83184 45.547 12.7084V15.1752C45.2458 15.0839 44.936 15.024 44.6225 14.9965C44.6225 14.0071 44.6311 14.198 41.3943 10.7181C40.799 10.0785 39.8144 9.94451 39.065 10.4341C35.4926 12.7678 31.1347 13.9401 27.1138 13.6514C26.2318 13.5853 25.4284 14.1663 25.2123 15.0248ZM27.2081 22.447V15.7127C31.6344 15.9719 36.275 14.6569 40.024 12.256C41.5085 13.8499 42.3124 14.6859 42.5716 15.0039V22.4469C42.5716 26.6096 39.1774 30.0042 35.0142 30.0042C30.3392 30.0043 27.2081 26.3777 27.2081 22.447ZM29.8898 42.0081L26.8753 35.9665L29.7865 34.8389L33.5108 39.4361C31.6169 40.781 30.0617 41.886 29.8898 42.0081ZM31.0663 63.1233L34.0343 45.5874H35.9581L38.9261 63.1233L34.9963 67.4468L31.0663 63.1233Z" fill="#4078F6" fill-opacity="0.8"/>
</svg>
