<svg width="70" height="70" viewBox="0 0 70 70" fill="none" xmlns="http://www.w3.org/2000/svg">
<g clip-path="url(#clip0_39_29)">
<path d="M67.2097 56.1736V9.22463M67.2097 9.22463H1.02539M67.2097 9.22463V3.82629C67.2097 3.0712 66.5976 2.45911 65.8425 2.45911H57.4801M1.02539 9.22463V66.1732C1.02539 66.9283 1.63748 67.5404 2.39258 67.5404H65.8425C66.5976 67.5404 67.2097 66.9283 67.2097 66.1732V61.8508M1.02539 9.22463V3.82629C1.02539 3.0712 1.63748 2.45911 2.39258 2.45911H52.695M10.3648 9.22463V2.45911" stroke="#4078F6" stroke-opacity="0.8" stroke-width="2.34375" stroke-miterlimit="10" stroke-linecap="round" stroke-linejoin="round"/>
<path d="M52.7886 49.1055L55.9818 45.9123C56.0173 45.8768 56.0561 45.8467 56.0968 45.8207L51.0763 40.8003C50.1097 42.0888 48.965 43.2334 47.6765 44.2001L52.697 49.2205C52.7231 49.1799 52.753 49.1411 52.7886 49.1055Z" stroke="#4078F6" stroke-opacity="0.8" stroke-width="2.34375" stroke-miterlimit="10" stroke-linecap="round" stroke-linejoin="round"/>
<path d="M68.113 61.237C66.9643 62.3857 65.1018 62.3857 63.953 61.237L52.7886 50.0726C52.6604 49.9444 52.5884 49.7705 52.5884 49.5892C52.5884 49.4079 52.6604 49.234 52.7886 49.1058L55.9818 45.9126C56.11 45.7844 56.2839 45.7124 56.4652 45.7124C56.6465 45.7124 56.8203 45.7844 56.9485 45.9126L68.113 57.0771C69.2618 58.2258 69.2618 60.0882 68.113 61.237Z" stroke="#4078F6" stroke-opacity="0.8" stroke-width="2.34375" stroke-miterlimit="10" stroke-linecap="round" stroke-linejoin="round"/>
<path d="M37.5375 47.5751C46.8787 47.5751 54.4513 40.0025 54.4513 30.6613C54.4513 21.3201 46.8787 13.7476 37.5375 13.7476C28.1963 13.7476 20.6238 21.3201 20.6238 30.6613C20.6238 40.0025 28.1963 47.5751 37.5375 47.5751Z" stroke="#4078F6" stroke-opacity="0.8" stroke-width="2.34375" stroke-miterlimit="10" stroke-linecap="round" stroke-linejoin="round"/>
<path d="M26.9853 37.1626C29.1682 40.6981 33.0774 43.0546 37.5376 43.0546C44.3821 43.0546 49.9307 37.506 49.9307 30.6615M49.9307 30.6615C49.9307 23.8169 44.3821 18.2683 37.5376 18.2683C30.693 18.2683 25.1444 23.8169 25.1444 30.6615C25.1444 31.3489 25.2013 32.0229 25.3089 32.68M49.9307 30.6615H37.5376L46.3008 39.4247" stroke="#4078F6" stroke-opacity="0.8" stroke-width="2.34375" stroke-miterlimit="10" stroke-linecap="round" stroke-linejoin="round"/>
<path d="M42.4646 24.4469L52.4657 14.4458H62.2091M56.9516 18.9968H62.2091M56.9516 23.5479H62.2091M16.3833 54.6872V62.0984H20.5131V44.0816C20.5131 43.9586 20.4643 43.8406 20.3773 43.7536C20.2903 43.6666 20.1723 43.6178 20.0493 43.6178H16.8472C16.7241 43.6178 16.6061 43.6666 16.5192 43.7536C16.4322 43.8406 16.3833 43.9586 16.3833 44.0816V49.902M5.87891 62.0984H39.2773M12.2533 52.3405V62.0984H8.12342V52.3405C8.12342 52.2175 8.17229 52.0995 8.25929 52.0125C8.34628 51.9255 8.46427 51.8767 8.58731 51.8767H11.7894C11.9124 51.8767 12.0304 51.9255 12.1174 52.0125C12.2044 52.0995 12.2533 52.2175 12.2533 52.3405ZM28.7729 50.406V62.0986H24.643V50.406C24.643 50.2829 24.6919 50.165 24.7789 50.078C24.8659 49.991 24.9839 49.9421 25.1069 49.9421H28.309C28.432 49.9421 28.55 49.991 28.637 50.078C28.724 50.165 28.7729 50.2829 28.7729 50.406ZM37.0327 54.4821V62.0984H32.9029V54.4821C32.9029 54.3591 32.9517 54.2411 33.0387 54.1541C33.1257 54.0671 33.2437 54.0182 33.3668 54.0182H36.5689C36.6919 54.0182 36.8099 54.0671 36.8969 54.1541C36.9839 54.2411 37.0327 54.3591 37.0327 54.4821Z" stroke="#4078F6" stroke-opacity="0.8" stroke-width="2.34375" stroke-miterlimit="10" stroke-linecap="round" stroke-linejoin="round"/>
<path d="M10.3648 24.6676C12.8423 24.6676 14.8507 22.6592 14.8507 20.1817C14.8507 17.7042 12.8423 15.6958 10.3648 15.6958C7.8873 15.6958 5.87891 17.7042 5.87891 20.1817C5.87891 22.6592 7.8873 24.6676 10.3648 24.6676Z" stroke="#4078F6" stroke-opacity="0.8" stroke-width="2.34375" stroke-miterlimit="10" stroke-linecap="round" stroke-linejoin="round"/>
<path d="M14.8505 20.1818H19.5569L27.8301 28.4549M5.87891 29.5212H13.821M5.87891 33.7864H13.821M5.87891 38.0516H11.3773M43.3833 57.8333H52.9432M43.3833 62.0986H50.0017M37.5375 18.2683V30.6615" stroke="#4078F6" stroke-opacity="0.8" stroke-width="2.34375" stroke-miterlimit="10" stroke-linecap="round" stroke-linejoin="round"/>
</g>
<defs>
<clipPath id="clip0_39_29">
<rect width="70" height="70" fill="white" transform="translate(0 -0.000366211)"/>
</clipPath>
</defs>
</svg>
