<svg width="101" height="48" viewBox="0 0 101 48" fill="none" xmlns="http://www.w3.org/2000/svg">
<rect x="17.5022" y="1.5" width="66.9985" height="43.6657" rx="8.5" fill="white" stroke="#9A6AD7" stroke-width="3"/>
<line x1="0.99" y1="46.5" x2="100.988" y2="45.8334" stroke="#9A6AD7" stroke-width="3"/>
<line x1="42" y1="29" x2="54" y2="29" stroke="#FEC47C" stroke-opacity="0.9" stroke-width="2"/>
<path d="M45.642 34V12.1818H53.0142C54.7259 12.1818 56.125 12.4908 57.2116 13.1087C58.3054 13.7195 59.1151 14.5469 59.6406 15.5909C60.1662 16.6349 60.429 17.7997 60.429 19.0852C60.429 20.3707 60.1662 21.5391 59.6406 22.5902C59.1222 23.6413 58.3196 24.4794 57.233 25.1044C56.1463 25.7223 54.7543 26.0312 53.0568 26.0312H47.7727V23.6875H52.9716C54.1435 23.6875 55.0845 23.4851 55.7947 23.0803C56.505 22.6754 57.0199 22.1286 57.3395 21.4396C57.6662 20.7436 57.8295 19.9588 57.8295 19.0852C57.8295 18.2116 57.6662 17.4304 57.3395 16.7415C57.0199 16.0526 56.5014 15.5128 55.7841 15.1222C55.0668 14.7244 54.1151 14.5256 52.929 14.5256H48.2841V34H45.642Z" fill="#FEC47C" fill-opacity="0.9"/>
</svg>
