<svg width="128" height="126" viewBox="0 0 128 126" fill="none" xmlns="http://www.w3.org/2000/svg">
<path d="M44.5581 44.2523C50.0588 45.9616 55.95 42.6386 57.2206 36.988C58.8447 29.7651 69.1553 29.7651 70.7794 36.988C72.05 42.6386 77.9412 45.9616 83.4419 44.2523C86.9444 43.1639 90.0038 44.789 91.5449 47.3666C93.08 49.9342 93.0188 53.2837 90.321 55.7154C85.9998 59.6106 85.9998 66.3894 90.321 70.2846C93.0188 72.7163 93.08 76.0658 91.5449 78.6334C90.0038 81.211 86.9444 82.8361 83.4419 81.7477C77.9412 80.0384 72.05 83.3614 70.7794 89.012C69.1553 96.2349 58.8447 96.2349 57.2206 89.012C55.95 83.3614 50.0588 80.0384 44.5581 81.7477C41.0556 82.8361 37.9962 81.211 36.4551 78.6334C34.92 76.0658 34.9812 72.7163 37.679 70.2846C42.0002 66.3894 42.0002 59.6106 37.679 55.7154C34.9812 53.2837 34.92 49.9342 36.4551 47.3666C37.9962 44.789 41.0556 43.1639 44.5581 44.2523Z" stroke="#9A6AD7" stroke-width="3"/>
<circle cx="64.5" cy="62.5" r="12" stroke="#9A6AD7" stroke-width="3"/>
</svg>
