<svg width="80" height="47" viewBox="0 0 80 47" fill="none" xmlns="http://www.w3.org/2000/svg">
<path d="M41.8508 44.2846C40.3717 44.3206 38.9089 43.97 37.6069 43.2674L16.2362 31.7352C10.5317 28.6569 10.2338 20.5825 15.696 17.0922L36.5939 3.73885C37.9013 2.90345 39.4124 2.44182 40.9634 2.40399L68.048 1.74339C72.741 1.62893 76.6383 5.34059 76.7528 10.0336L77.3596 34.916C77.4741 39.609 73.7625 43.5062 69.0694 43.6207L41.8508 44.2846Z" stroke="#9A6AD7" stroke-width="3"/>
<path d="M56.7109 29.9091V28.7585C56.7109 27.8849 56.8956 27.0824 57.2649 26.3509C57.6413 25.6122 58.1847 25.0227 58.8949 24.5824C59.6122 24.1349 60.4858 23.9112 61.5156 23.9112C62.5597 23.9112 63.4368 24.1314 64.147 24.5717C64.8643 25.0121 65.4041 25.6016 65.7663 26.3402C66.1357 27.0717 66.3203 27.8778 66.3203 28.7585V29.9091C66.3203 30.7827 66.1357 31.5888 65.7663 32.3274C65.397 33.0589 64.8537 33.6449 64.1364 34.0852C63.419 34.5327 62.5455 34.7564 61.5156 34.7564C60.4716 34.7564 59.5945 34.5327 58.8842 34.0852C58.174 33.6449 57.6342 33.0589 57.2649 32.3274C56.8956 31.5888 56.7109 30.7827 56.7109 29.9091ZM59.8111 28.7585V29.9091C59.8111 30.4134 59.9318 30.8892 60.1733 31.3366C60.4219 31.7841 60.8693 32.0078 61.5156 32.0078C62.1619 32.0078 62.6023 31.7876 62.8366 31.3473C63.0781 30.907 63.1989 30.4276 63.1989 29.9091V28.7585C63.1989 28.2401 63.0852 27.7571 62.858 27.3097C62.6307 26.8622 62.1832 26.6385 61.5156 26.6385C60.8764 26.6385 60.4325 26.8622 60.1839 27.3097C59.9354 27.7571 59.8111 28.2401 59.8111 28.7585ZM45.5142 17.4233V16.2727C45.5142 15.392 45.7024 14.5859 46.0788 13.8544C46.4553 13.1158 46.9986 12.5263 47.7088 12.0859C48.4261 11.6456 49.2926 11.4254 50.3082 11.4254C51.3594 11.4254 52.2401 11.6456 52.9503 12.0859C53.6605 12.5263 54.2003 13.1158 54.5696 13.8544C54.9389 14.5859 55.1236 15.392 55.1236 16.2727V17.4233C55.1236 18.304 54.9354 19.1101 54.5589 19.8416C54.1896 20.5732 53.6463 21.1591 52.929 21.5994C52.2188 22.0327 51.3452 22.2493 50.3082 22.2493C49.2713 22.2493 48.3942 22.0291 47.6768 21.5888C46.9666 21.1413 46.4268 20.5554 46.0575 19.831C45.6953 19.0994 45.5142 18.2969 45.5142 17.4233ZM48.6357 16.2727V17.4233C48.6357 17.9418 48.7564 18.4212 48.9979 18.8615C49.2464 19.3018 49.6832 19.522 50.3082 19.522C50.9616 19.522 51.4055 19.3018 51.6399 18.8615C51.8814 18.4212 52.0021 17.9418 52.0021 17.4233V16.2727C52.0021 15.7543 51.8885 15.2713 51.6612 14.8239C51.4339 14.3764 50.983 14.1527 50.3082 14.1527C49.6761 14.1527 49.2393 14.38 48.9979 14.8345C48.7564 15.2891 48.6357 15.7685 48.6357 16.2727ZM46.9205 34L61.9205 12.1818H64.7116L49.7116 34H46.9205Z" fill="#FEC47C" fill-opacity="0.9"/>
<circle cx="23" cy="24" r="3" stroke="#9A6AD7" stroke-width="2"/>
</svg>
