<svg width="100" height="89" viewBox="0 0 100 89" fill="none" xmlns="http://www.w3.org/2000/svg">
<path d="M46.3836 69.3367C62.8313 69.3367 76.1647 56.4653 76.1647 40.5877C76.1647 24.71 62.8313 11.8386 46.3836 11.8386C29.9359 11.8386 16.6025 24.71 16.6025 40.5877C16.6025 56.4653 29.9359 69.3367 46.3836 69.3367Z" fill="#4078F6" fill-opacity="0.9"/>
<path d="M46.3836 69.1011C62.6965 69.1011 75.9208 56.3352 75.9208 40.5876C75.9208 24.8399 62.6965 12.074 46.3836 12.074C30.0706 12.074 16.8464 24.8399 16.8464 40.5876C16.8464 56.3352 30.0706 69.1011 46.3836 69.1011Z" stroke="white" stroke-opacity="0.2"/>
<path d="M65.7415 46.3373C75.8842 46.3373 84.1065 38.3999 84.1065 28.6087C84.1065 18.8175 75.8842 10.8801 65.7415 10.8801C55.5987 10.8801 47.3764 18.8175 47.3764 28.6087C47.3764 38.3999 55.5987 46.3373 65.7415 46.3373Z" fill="#FEC47C" fill-opacity="0.9"/>
<path d="M39.931 54.9621C53.3632 54.9621 64.2522 44.4504 64.2522 31.4837C64.2522 18.517 53.3632 8.00537 39.931 8.00537C26.4987 8.00537 15.6097 18.517 15.6097 31.4837C15.6097 44.4504 26.4987 54.9621 39.931 54.9621Z" fill="#9A6AD7" fill-opacity="0.9"/>
<path d="M60.2815 72.2113C69.6018 72.2113 77.1574 64.9176 77.1574 55.9202C77.1574 46.9229 69.6018 39.6292 60.2815 39.6292C50.9611 39.6292 43.4055 46.9229 43.4055 55.9202C43.4055 64.9176 50.9611 72.2113 60.2815 72.2113Z" fill="#D36190" fill-opacity="0.9"/>
<path d="M48.5022 29.1287L29.5497 47.4243" stroke="white" stroke-width="6"/>
<path d="M46.948 29.9854L66.2825 47.9045" stroke="white" stroke-width="6"/>
<path d="M55.7888 29.0879V37.7126" stroke="white" stroke-width="6"/>
<path d="M51.3471 40.5874H44.3981V52.087H51.3471V40.5874Z" fill="white"/>
<path d="M9.97264 75.4297V85.7038H7.7484V77.1956H3.44548V85.7038H1.22125V75.4297H9.97264ZM12.0734 88.5932V77.998H14.2561V79.2925H14.3548C14.4518 79.0853 14.5922 78.8743 14.7758 78.6605C14.9628 78.443 15.2054 78.2621 15.5033 78.1185C15.8047 77.9716 16.1789 77.8977 16.6258 77.8977C17.2079 77.8977 17.7449 78.0451 18.2368 78.3394C18.7288 78.6304 19.122 79.0702 19.4165 79.6588C19.711 80.2442 19.8582 80.9778 19.8582 81.8608C19.8582 82.7206 19.7144 83.4463 19.4269 84.0382C19.1428 84.6268 18.7548 85.0732 18.2628 85.3779C17.7743 85.6788 17.2269 85.829 16.6206 85.829C16.191 85.829 15.8255 85.7607 15.5241 85.6237C15.2262 85.4862 14.9819 85.3143 14.7914 85.1067C14.6008 84.8962 14.4553 84.6838 14.3548 84.4695H14.2873V88.5932H12.0734ZM14.2405 81.8509C14.2405 82.3091 14.3063 82.7088 14.438 83.0498C14.5696 83.3912 14.7602 83.6568 15.0096 83.8475C15.2591 84.0349 15.5622 84.1286 15.9191 84.1286C16.2794 84.1286 16.5843 84.033 16.8337 83.8428C17.0831 83.6488 17.272 83.3808 17.4002 83.0399C17.5318 82.6957 17.5976 82.2992 17.5976 81.8509C17.5976 81.4063 17.5335 81.015 17.4053 80.6769C17.2771 80.3393 17.0883 80.0751 16.8389 79.8844C16.5894 79.6937 16.2828 79.5986 15.9191 79.5986C15.5587 79.5986 15.2539 79.6904 15.0044 79.8745C14.7584 80.0582 14.5696 80.319 14.438 80.6571C14.3063 80.9948 14.2405 81.3927 14.2405 81.8509ZM24.9407 85.8545C24.1334 85.8545 23.4353 85.6887 22.8463 85.3577C22.2609 85.0233 21.8087 84.5581 21.49 83.9629C21.1713 83.3643 21.0119 82.6702 21.0119 81.881C21.0119 81.0852 21.1713 80.3892 21.49 79.794C21.8087 79.1955 22.2609 78.7307 22.8463 78.3996C23.4353 78.0648 24.1334 77.8977 24.9407 77.8977C25.7479 77.8977 26.4443 78.0648 27.0298 78.3996C27.6187 78.7307 28.0726 79.1955 28.3913 79.794C28.7101 80.3892 28.8695 81.0852 28.8695 81.881C28.8695 82.6702 28.7101 83.3643 28.3913 83.9629C28.0726 84.5581 27.6187 85.0233 27.0298 85.3577C26.4443 85.6887 25.7479 85.8545 24.9407 85.8545ZM24.9511 84.1988C25.3183 84.1988 25.6249 84.0985 25.8709 83.8979C26.1169 83.694 26.3023 83.4161 26.4269 83.0648C26.5551 82.714 26.6192 82.3142 26.6192 81.8659C26.6192 81.4176 26.5551 81.0183 26.4269 80.667C26.3023 80.3157 26.1169 80.0384 25.8709 79.8345C25.6249 79.6301 25.3183 79.5284 24.9511 79.5284C24.5803 79.5284 24.2685 79.6301 24.0157 79.8345C23.7662 80.0384 23.5774 80.3157 23.4492 80.667C23.3245 81.0183 23.2621 81.4176 23.2621 81.8659C23.2621 82.3142 23.3245 82.714 23.4492 83.0648C23.5774 83.4161 23.7662 83.694 24.0157 83.8979C24.2685 84.0985 24.5803 84.1988 24.9511 84.1988ZM33.9155 85.8545C33.0979 85.8545 32.3946 85.6868 31.8056 85.3525C31.2201 85.0148 30.7697 84.5468 30.4544 83.9478C30.1426 83.3493 29.9867 82.6603 29.9867 81.881C29.9867 81.0918 30.1444 80.3996 30.4597 79.8043C30.7784 79.2054 31.2305 78.7392 31.816 78.4044C32.4015 78.0667 33.0979 77.8977 33.9051 77.8977C34.6015 77.8977 35.2113 78.0201 35.7344 78.264C36.2575 78.508 36.6716 78.8508 36.9764 79.2925C37.2813 79.7337 37.4493 80.2522 37.4805 80.8479H35.3914C35.3325 80.4631 35.1766 80.1537 34.9237 79.9197C34.6743 79.6819 34.3468 79.5632 33.9415 79.5632C33.5985 79.5632 33.2988 79.6537 33.0424 79.8345C32.7896 80.0115 32.5921 80.2705 32.45 80.6119C32.308 80.9529 32.237 81.3658 32.237 81.8509C32.237 82.3425 32.3063 82.7606 32.4448 83.1053C32.5869 83.4496 32.7861 83.7123 33.0424 83.8927C33.2988 84.0735 33.5985 84.1635 33.9415 84.1635C34.1944 84.1635 34.4213 84.1135 34.6223 84.0132C34.8267 83.9129 34.9947 83.7674 35.1264 83.5767C35.2615 83.3827 35.3499 83.1501 35.3914 82.8793H37.4805C37.4459 83.4679 37.2796 83.9864 36.9816 84.4347C36.6871 84.8792 36.2801 85.2272 35.7604 85.4782C35.2407 85.7287 34.6258 85.8545 33.9155 85.8545ZM38.3536 79.6786V77.998H45.5875V79.6786H43.0151V85.7038H40.9052V79.6786H38.3536ZM50.2503 85.8545C49.4429 85.8545 48.745 85.6887 48.156 85.3577C47.5705 85.0233 47.1184 84.5581 46.7997 83.9629C46.4809 83.3643 46.3216 82.6702 46.3216 81.881C46.3216 81.0852 46.4809 80.3892 46.7997 79.794C47.1184 79.1955 47.5705 78.7307 48.156 78.3996C48.745 78.0648 49.4429 77.8977 50.2503 77.8977C51.0576 77.8977 51.7542 78.0648 52.3395 78.3996C52.9283 78.7307 53.3824 79.1955 53.701 79.794C54.0195 80.3892 54.179 81.0852 54.179 81.881C54.179 82.6702 54.0195 83.3643 53.701 83.9629C53.3824 84.5581 52.9283 85.0233 52.3395 85.3577C51.7542 85.6887 51.0576 85.8545 50.2503 85.8545ZM50.2605 84.1988C50.6278 84.1988 50.9346 84.0985 51.1805 83.8979C51.4263 83.694 51.6117 83.4161 51.7366 83.0648C51.8649 82.714 51.9288 82.3142 51.9288 81.8659C51.9288 81.4176 51.8649 81.0183 51.7366 80.667C51.6117 80.3157 51.4263 80.0384 51.1805 79.8345C50.9346 79.6301 50.6278 79.5284 50.2605 79.5284C49.8903 79.5284 49.5781 79.6301 49.3254 79.8345C49.0756 80.0384 48.8868 80.3157 48.7588 80.667C48.6341 81.0183 48.5718 81.4176 48.5718 81.8659C48.5718 82.3142 48.6341 82.714 48.7588 83.0648C48.8868 83.4161 49.0756 83.694 49.3254 83.8979C49.5781 84.0985 49.8903 84.1988 50.2605 84.1988ZM55.66 85.7038V75.4297H62.7224V77.2205H57.9103V79.227H59.641C60.4829 79.227 61.2088 79.3593 61.8185 79.6235C62.4317 79.8844 62.9044 80.254 63.2371 80.732C63.5698 81.2104 63.7361 81.7741 63.7361 82.423C63.7361 83.0681 63.5698 83.6384 63.2371 84.1333C62.9044 84.6254 62.4317 85.0097 61.8185 85.2875C61.2088 85.5649 60.4829 85.7038 59.641 85.7038H55.66ZM57.9103 83.9581H59.641C60.0429 83.9581 60.3824 83.8875 60.6595 83.7472C60.9366 83.6036 61.1463 83.4143 61.2883 83.1802C61.4337 82.9429 61.5063 82.6839 61.5063 82.4028C61.5063 81.995 61.3454 81.6503 61.0234 81.3691C60.7044 81.0852 60.2439 80.943 59.641 80.943H57.9103V83.9581ZM65.1507 88.5932V77.998H67.3337V79.2925H67.4322C67.5293 79.0853 67.6693 78.8743 67.8532 78.6605C68.04 78.443 68.2829 78.2621 68.5805 78.1185C68.882 77.9716 69.2561 77.8977 69.7034 77.8977C70.2854 77.8977 70.8224 78.0451 71.3141 78.3394C71.8063 78.6304 72.1995 79.0702 72.4937 79.6588C72.7883 80.2442 72.9356 80.9778 72.9356 81.8608C72.9356 82.7206 72.7917 83.4463 72.5044 84.0382C72.22 84.6268 71.8322 85.0732 71.34 85.3779C70.8517 85.6788 70.3044 85.829 69.6981 85.829C69.2683 85.829 68.9029 85.7607 68.6015 85.6237C68.3034 85.4862 68.059 85.3143 67.8688 85.1067C67.678 84.8962 67.5327 84.6838 67.4322 84.4695H67.3644V88.5932H65.1507ZM67.3181 81.8509C67.3181 82.3091 67.3839 82.7088 67.5151 83.0498C67.6468 83.3912 67.8376 83.6568 68.0868 83.8475C68.3366 84.0349 68.6395 84.1286 68.9966 84.1286C69.3566 84.1286 69.6615 84.033 69.9112 83.8428C70.1605 83.6488 70.3493 83.3808 70.4776 83.0399C70.6093 82.6957 70.6751 82.2992 70.6751 81.8509C70.6751 81.4063 70.6107 81.015 70.4829 80.6769C70.3546 80.3393 70.1659 80.0751 69.9161 79.8844C69.6668 79.6937 69.36 79.5986 68.9966 79.5986C68.6361 79.5986 68.3312 79.6904 68.082 79.8745C67.8356 80.0582 67.6468 80.319 67.5151 80.6571C67.3839 80.9948 67.3181 81.3927 67.3181 81.8509ZM78.0181 85.8545C77.2107 85.8545 76.5127 85.6887 75.9239 85.3577C75.3381 85.0233 74.8863 84.5581 74.5673 83.9629C74.2488 83.3643 74.0893 82.6702 74.0893 81.881C74.0893 81.0852 74.2488 80.3892 74.5673 79.794C74.8863 79.1955 75.3381 78.7307 75.9239 78.3996C76.5127 78.0648 77.2107 77.8977 78.0181 77.8977C78.8254 77.8977 79.5215 78.0648 80.1073 78.3996C80.6961 78.7307 81.1498 79.1955 81.4688 79.794C81.7873 80.3892 81.9468 81.0852 81.9468 81.881C81.9468 82.6702 81.7873 83.3643 81.4688 83.9629C81.1498 84.5581 80.6961 85.0233 80.1073 85.3577C79.5215 85.6887 78.8254 85.8545 78.0181 85.8545ZM78.0283 84.1988C78.3956 84.1988 78.7024 84.0985 78.9483 83.8979C79.1941 83.694 79.3795 83.4161 79.5044 83.0648C79.6327 82.714 79.6966 82.3142 79.6966 81.8659C79.6966 81.4176 79.6327 81.0183 79.5044 80.667C79.3795 80.3157 79.1941 80.0384 78.9483 79.8345C78.7024 79.6301 78.3956 79.5284 78.0283 79.5284C77.6576 79.5284 77.3459 79.6301 77.0932 79.8345C76.8434 80.0384 76.6546 80.3157 76.5263 80.667C76.402 81.0183 76.3395 81.4176 76.3395 81.8659C76.3395 82.3142 76.402 82.714 76.5263 83.0648C76.6546 83.4161 76.8434 83.694 77.0932 83.8979C77.3459 84.0985 77.6576 84.1988 78.0283 84.1988ZM88.9415 80.9981V82.6787H84.7737V80.9981H88.9415ZM85.5015 77.998V85.7038H83.3863V77.998H85.5015ZM90.3293 77.998V85.7038H88.2298V77.998H90.3293ZM93.4341 80.3661H95.8195C96.8761 80.3661 97.701 80.61 98.2932 81.0984C98.8859 81.5834 99.182 82.2323 99.182 83.0451C99.182 83.5734 99.0488 84.0382 98.782 84.4394C98.5151 84.8378 98.1302 85.1486 97.6283 85.3727C97.1259 85.5936 96.5229 85.7038 95.8195 85.7038H92.0468V77.998H94.1619V84.0231H95.8195C96.1902 84.0231 96.4951 83.9327 96.7341 83.7524C96.9732 83.5715 97.0946 83.3408 97.098 83.0601C97.0946 82.7625 96.9732 82.52 96.7341 82.3326C96.4951 82.1419 96.1902 82.0468 95.8195 82.0468H93.4341V80.3661Z" fill="#222222"/>
<path d="M55.8537 6.12169C57.6048 6.12169 59.0244 4.75131 59.0244 3.06085C59.0244 1.37039 57.6048 0 55.8537 0C54.1025 0 52.6829 1.37039 52.6829 3.06085C52.6829 4.75131 54.1025 6.12169 55.8537 6.12169Z" fill="#D36190" fill-opacity="0.9"/>
<path d="M83.9024 48.5027C83.9024 49.543 83.0288 50.3863 81.9512 50.3863C80.8737 50.3863 80 49.543 80 48.5027C80 47.4625 80.8737 46.6191 81.9512 46.6191C83.0288 46.6191 83.9024 47.4625 83.9024 48.5027Z" fill="#FEC47C" fill-opacity="0.9"/>
<path d="M9.75611 41.91C9.75611 42.9502 8.8825 43.7936 7.80489 43.7936C6.72728 43.7936 5.85367 42.9502 5.85367 41.91C5.85367 40.8697 6.72728 40.0264 7.80489 40.0264C8.8825 40.0264 9.75611 40.8697 9.75611 41.91Z" fill="#FEC47C" fill-opacity="0.9"/>
<path d="M90.9756 45.2064C93.535 45.2064 95.6098 43.2035 95.6098 40.7328C95.6098 38.2622 93.535 36.2593 90.9756 36.2593C88.4162 36.2593 86.3415 38.2622 86.3415 40.7328C86.3415 43.2035 88.4162 45.2064 90.9756 45.2064Z" fill="#9A6AD7"/>
<path d="M18.0488 67.3386C19.3958 67.3386 20.4878 66.2845 20.4878 64.9841C20.4878 63.6838 19.3958 62.6296 18.0488 62.6296C16.7017 62.6296 15.6097 63.6838 15.6097 64.9841C15.6097 66.2845 16.7017 67.3386 18.0488 67.3386Z" fill="#D36190" fill-opacity="0.9"/>
</svg>
