<svg width="283" height="67" viewBox="0 0 283 67" fill="none" xmlns="http://www.w3.org/2000/svg">
<circle cx="31" cy="34" r="30" fill="#4078F6" fill-opacity="0.9"/>
<circle cx="50.5" cy="21.5" r="18.5" fill="#FEC47C" fill-opacity="0.9"/>
<circle cx="24.5" cy="24.5" r="24.5" fill="#9A6AD7" fill-opacity="0.9"/>
<circle cx="45" cy="50" r="17" fill="#D36190" fill-opacity="0.9"/>
<line x1="33.5061" y1="22.4142" x2="14.4142" y2="41.5061" stroke="white" stroke-width="4"/>
<line x1="31.3851" y1="22.5573" x2="50.8619" y2="41.2563" stroke="white" stroke-width="4"/>
<line x1="41" y1="22" x2="41" y2="31" stroke="white" stroke-width="4"/>
<rect x="29" y="34" width="7" height="12" fill="white"/>
<path d="M98.4439 25.1818V47H93.8842V28.9318H85.0632V47H80.5036V25.1818H98.4439ZM102.751 53.1364V30.6364H107.225V33.3849H107.427C107.626 32.9446 107.914 32.4972 108.29 32.0426C108.674 31.581 109.171 31.1974 109.782 30.892C110.4 30.5795 111.167 30.4233 112.083 30.4233C113.276 30.4233 114.377 30.7358 115.385 31.3608C116.394 31.9787 117.2 32.9126 117.804 34.1626C118.407 35.4055 118.709 36.9645 118.709 38.8395C118.709 40.6648 118.415 42.206 117.825 43.4631C117.243 44.7131 116.447 45.6612 115.439 46.3075C114.437 46.9467 113.315 47.2663 112.072 47.2663C111.192 47.2663 110.442 47.1207 109.824 46.8295C109.214 46.5384 108.713 46.1726 108.322 45.7322C107.932 45.2848 107.633 44.8338 107.427 44.3793H107.289V53.1364H102.751ZM107.193 38.8182C107.193 39.7912 107.328 40.6399 107.598 41.3643C107.868 42.0888 108.258 42.6534 108.77 43.0582C109.281 43.456 109.903 43.6548 110.634 43.6548C111.373 43.6548 111.998 43.4524 112.509 43.0476C113.02 42.6357 113.407 42.0675 113.67 41.343C113.94 40.6115 114.075 39.7699 114.075 38.8182C114.075 37.8736 113.944 37.0426 113.681 36.3253C113.418 35.608 113.031 35.0469 112.52 34.642C112.008 34.2372 111.38 34.0348 110.634 34.0348C109.895 34.0348 109.27 34.2301 108.759 34.6207C108.255 35.0114 107.868 35.5653 107.598 36.2827C107.328 37 107.193 37.8452 107.193 38.8182ZM129.128 47.3196C127.474 47.3196 126.042 46.968 124.835 46.2649C123.635 45.5547 122.708 44.5675 122.055 43.3033C121.401 42.032 121.074 40.5582 121.074 38.8821C121.074 37.1918 121.401 35.7145 122.055 34.4503C122.708 33.179 123.635 32.1918 124.835 31.4886C126.042 30.7784 127.474 30.4233 129.128 30.4233C130.783 30.4233 132.211 30.7784 133.411 31.4886C134.618 32.1918 135.549 33.179 136.202 34.4503C136.856 35.7145 137.182 37.1918 137.182 38.8821C137.182 40.5582 136.856 42.032 136.202 43.3033C135.549 44.5675 134.618 45.5547 133.411 46.2649C132.211 46.968 130.783 47.3196 129.128 47.3196ZM129.15 43.804C129.903 43.804 130.531 43.5909 131.035 43.1648C131.54 42.7315 131.92 42.142 132.175 41.3963C132.438 40.6506 132.569 39.8018 132.569 38.8501C132.569 37.8984 132.438 37.0497 132.175 36.304C131.92 35.5582 131.54 34.9687 131.035 34.5355C130.531 34.1023 129.903 33.8857 129.15 33.8857C128.39 33.8857 127.751 34.1023 127.232 34.5355C126.721 34.9687 126.334 35.5582 126.071 36.304C125.815 37.0497 125.687 37.8984 125.687 38.8501C125.687 39.8018 125.815 40.6506 126.071 41.3963C126.334 42.142 126.721 42.7315 127.232 43.1648C127.751 43.5909 128.39 43.804 129.15 43.804ZM147.527 47.3196C145.851 47.3196 144.409 46.9645 143.202 46.2543C142.001 45.5369 141.078 44.5426 140.432 43.2713C139.792 42 139.473 40.5369 139.473 38.8821C139.473 37.206 139.796 35.7358 140.442 34.4716C141.096 33.2003 142.023 32.2095 143.223 31.4993C144.423 30.782 145.851 30.4233 147.506 30.4233C148.933 30.4233 150.183 30.6825 151.256 31.201C152.328 31.7195 153.177 32.4474 153.802 33.3849C154.427 34.3224 154.771 35.4233 154.835 36.6875H150.552C150.432 35.8707 150.112 35.2138 149.594 34.7166C149.082 34.2124 148.411 33.9602 147.58 33.9602C146.877 33.9602 146.263 34.152 145.737 34.5355C145.219 34.9119 144.814 35.4624 144.523 36.1868C144.231 36.9112 144.086 37.7884 144.086 38.8182C144.086 39.8622 144.228 40.75 144.512 41.4815C144.803 42.2131 145.211 42.7706 145.737 43.1541C146.263 43.5376 146.877 43.7294 147.58 43.7294C148.099 43.7294 148.564 43.6229 148.976 43.4098C149.395 43.1967 149.739 42.8878 150.009 42.483C150.286 42.071 150.467 41.5774 150.552 41.0021H154.835C154.764 42.2521 154.423 43.353 153.812 44.3047C153.209 45.2493 152.374 45.9879 151.309 46.5206C150.243 47.0533 148.983 47.3196 147.527 47.3196ZM156.625 34.2053V30.6364H171.454V34.2053H166.181V47H161.856V34.2053H156.625ZM181.013 47.3196C179.358 47.3196 177.927 46.968 176.72 46.2649C175.52 45.5547 174.593 44.5675 173.939 43.3033C173.286 42.032 172.959 40.5582 172.959 38.8821C172.959 37.1918 173.286 35.7145 173.939 34.4503C174.593 33.179 175.52 32.1918 176.72 31.4886C177.927 30.7784 179.358 30.4233 181.013 30.4233C182.668 30.4233 184.096 30.7784 185.296 31.4886C186.503 32.1918 187.434 33.179 188.087 34.4503C188.74 35.7145 189.067 37.1918 189.067 38.8821C189.067 40.5582 188.74 42.032 188.087 43.3033C187.434 44.5675 186.503 45.5547 185.296 46.2649C184.096 46.968 182.668 47.3196 181.013 47.3196ZM181.034 43.804C181.787 43.804 182.416 43.5909 182.92 43.1648C183.424 42.7315 183.804 42.142 184.06 41.3963C184.323 40.6506 184.454 39.8018 184.454 38.8501C184.454 37.8984 184.323 37.0497 184.06 36.304C183.804 35.5582 183.424 34.9687 182.92 34.5355C182.416 34.1023 181.787 33.8857 181.034 33.8857C180.275 33.8857 179.635 34.1023 179.117 34.5355C178.605 34.9687 178.218 35.5582 177.956 36.304C177.7 37.0497 177.572 37.8984 177.572 38.8501C177.572 39.8018 177.7 40.6506 177.956 41.3963C178.218 42.142 178.605 42.7315 179.117 43.1648C179.635 43.5909 180.275 43.804 181.034 43.804ZM192.103 47V25.1818H206.581V28.9851H196.716V33.2464H200.264C201.99 33.2464 203.478 33.527 204.728 34.0881C205.985 34.642 206.954 35.4268 207.636 36.4425C208.318 37.4581 208.659 38.6548 208.659 40.0327C208.659 41.4034 208.318 42.6143 207.636 43.6655C206.954 44.7095 205.985 45.5263 204.728 46.1158C203.478 46.7053 201.99 47 200.264 47H192.103ZM196.716 43.2926H200.264C201.088 43.2926 201.784 43.1435 202.352 42.8452C202.92 42.5398 203.35 42.1385 203.641 41.6413C203.939 41.1371 204.088 40.5866 204.088 39.9901C204.088 39.1236 203.758 38.392 203.098 37.7955C202.444 37.1918 201.5 36.8899 200.264 36.8899H196.716V43.2926ZM211.559 53.1364V30.6364H216.034V33.3849H216.236C216.435 32.9446 216.722 32.4972 217.099 32.0426C217.482 31.581 217.98 31.1974 218.59 30.892C219.208 30.5795 219.975 30.4233 220.892 30.4233C222.085 30.4233 223.186 30.7358 224.194 31.3608C225.203 31.9787 226.009 32.9126 226.612 34.1626C227.216 35.4055 227.518 36.9645 227.518 38.8395C227.518 40.6648 227.223 42.206 226.634 43.4631C226.051 44.7131 225.256 45.6612 224.247 46.3075C223.246 46.9467 222.124 47.2663 220.881 47.2663C220 47.2663 219.251 47.1207 218.633 46.8295C218.022 46.5384 217.521 46.1726 217.131 45.7322C216.74 45.2848 216.442 44.8338 216.236 44.3793H216.097V53.1364H211.559ZM216.002 38.8182C216.002 39.7912 216.137 40.6399 216.406 41.3643C216.676 42.0888 217.067 42.6534 217.578 43.0582C218.09 43.456 218.711 43.6548 219.443 43.6548C220.181 43.6548 220.806 43.4524 221.318 43.0476C221.829 42.6357 222.216 42.0675 222.479 41.343C222.749 40.6115 222.884 39.7699 222.884 38.8182C222.884 37.8736 222.752 37.0426 222.49 36.3253C222.227 35.608 221.84 35.0469 221.328 34.642C220.817 34.2372 220.188 34.0348 219.443 34.0348C218.704 34.0348 218.079 34.2301 217.568 34.6207C217.063 35.0114 216.676 35.5653 216.406 36.2827C216.137 37 216.002 37.8452 216.002 38.8182ZM237.937 47.3196C236.282 47.3196 234.851 46.968 233.644 46.2649C232.443 45.5547 231.517 44.5675 230.863 43.3033C230.21 42.032 229.883 40.5582 229.883 38.8821C229.883 37.1918 230.21 35.7145 230.863 34.4503C231.517 33.179 232.443 32.1918 233.644 31.4886C234.851 30.7784 236.282 30.4233 237.937 30.4233C239.592 30.4233 241.019 30.7784 242.22 31.4886C243.427 32.1918 244.357 33.179 245.011 34.4503C245.664 35.7145 245.991 37.1918 245.991 38.8821C245.991 40.5582 245.664 42.032 245.011 43.3033C244.357 44.5675 243.427 45.5547 242.22 46.2649C241.019 46.968 239.592 47.3196 237.937 47.3196ZM237.958 43.804C238.711 43.804 239.34 43.5909 239.844 43.1648C240.348 42.7315 240.728 42.142 240.984 41.3963C241.247 40.6506 241.378 39.8018 241.378 38.8501C241.378 37.8984 241.247 37.0497 240.984 36.304C240.728 35.5582 240.348 34.9687 239.844 34.5355C239.34 34.1023 238.711 33.8857 237.958 33.8857C237.198 33.8857 236.559 34.1023 236.041 34.5355C235.529 34.9687 235.142 35.5582 234.879 36.304C234.624 37.0497 234.496 37.8984 234.496 38.8501C234.496 39.8018 234.624 40.6506 234.879 41.3963C235.142 42.142 235.529 42.7315 236.041 43.1648C236.559 43.5909 237.198 43.804 237.958 43.804ZM260.33 37.0071V40.576H251.786V37.0071H260.33ZM253.278 30.6364V47H248.942V30.6364H253.278ZM263.175 30.6364V47H258.871V30.6364H263.175ZM269.54 35.6648H274.43C276.596 35.6648 278.287 36.1832 279.501 37.2202C280.716 38.25 281.323 39.6278 281.323 41.3537C281.323 42.4759 281.05 43.4631 280.503 44.3153C279.956 45.1605 279.167 45.821 278.138 46.2969C277.108 46.7656 275.872 47 274.43 47H266.696V30.6364H271.032V43.4311H274.43C275.19 43.4311 275.815 43.2393 276.305 42.8558C276.795 42.4723 277.044 41.9822 277.051 41.3857C277.044 40.7536 276.795 40.2386 276.305 39.8409C275.815 39.4361 275.19 39.2337 274.43 39.2337H269.54V35.6648Z" fill="#4078F6"/>
</svg>
