<svg width="378" height="67" viewBox="0 0 378 67" fill="none" xmlns="http://www.w3.org/2000/svg">
<circle cx="31" cy="34" r="30" fill="#4078F6" fill-opacity="0.9"/>
<circle cx="50.5" cy="21.5" r="18.5" fill="#FEC47C" fill-opacity="0.9"/>
<circle cx="24.5" cy="24.5" r="24.5" fill="#9A6AD7" fill-opacity="0.9"/>
<circle cx="45" cy="50" r="17" fill="#D36190" fill-opacity="0.9"/>
<path d="M101.444 24.1818V46H96.8842V27.9318H88.0632V46H83.5036V24.1818H101.444ZM105.751 52.1364V29.6364H110.225V32.3849H110.427C110.626 31.9446 110.914 31.4972 111.29 31.0426C111.674 30.581 112.171 30.1974 112.782 29.892C113.4 29.5795 114.167 29.4233 115.083 29.4233C116.276 29.4233 117.377 29.7358 118.385 30.3608C119.394 30.9787 120.2 31.9126 120.804 33.1626C121.407 34.4055 121.709 35.9645 121.709 37.8395C121.709 39.6648 121.415 41.206 120.825 42.4631C120.243 43.7131 119.447 44.6612 118.439 45.3075C117.437 45.9467 116.315 46.2663 115.072 46.2663C114.192 46.2663 113.442 46.1207 112.824 45.8295C112.214 45.5384 111.713 45.1726 111.322 44.7322C110.932 44.2848 110.633 43.8338 110.427 43.3793H110.289V52.1364H105.751ZM110.193 37.8182C110.193 38.7912 110.328 39.6399 110.598 40.3643C110.868 41.0888 111.258 41.6534 111.77 42.0582C112.281 42.456 112.903 42.6548 113.634 42.6548C114.373 42.6548 114.998 42.4524 115.509 42.0476C116.02 41.6357 116.407 41.0675 116.67 40.343C116.94 39.6115 117.075 38.7699 117.075 37.8182C117.075 36.8736 116.944 36.0426 116.681 35.3253C116.418 34.608 116.031 34.0469 115.52 33.642C115.008 33.2372 114.38 33.0348 113.634 33.0348C112.895 33.0348 112.27 33.2301 111.759 33.6207C111.255 34.0114 110.868 34.5653 110.598 35.2827C110.328 36 110.193 36.8452 110.193 37.8182ZM132.128 46.3196C130.474 46.3196 129.042 45.968 127.835 45.2649C126.635 44.5547 125.708 43.5675 125.055 42.3033C124.401 41.032 124.074 39.5582 124.074 37.8821C124.074 36.1918 124.401 34.7145 125.055 33.4503C125.708 32.179 126.635 31.1918 127.835 30.4886C129.042 29.7784 130.474 29.4233 132.128 29.4233C133.783 29.4233 135.211 29.7784 136.411 30.4886C137.618 31.1918 138.549 32.179 139.202 33.4503C139.856 34.7145 140.182 36.1918 140.182 37.8821C140.182 39.5582 139.856 41.032 139.202 42.3033C138.549 43.5675 137.618 44.5547 136.411 45.2649C135.211 45.968 133.783 46.3196 132.128 46.3196ZM132.15 42.804C132.903 42.804 133.531 42.5909 134.035 42.1648C134.54 41.7315 134.92 41.142 135.175 40.3963C135.438 39.6506 135.569 38.8018 135.569 37.8501C135.569 36.8984 135.438 36.0497 135.175 35.304C134.92 34.5582 134.54 33.9687 134.035 33.5355C133.531 33.1023 132.903 32.8857 132.15 32.8857C131.39 32.8857 130.751 33.1023 130.232 33.5355C129.721 33.9687 129.334 34.5582 129.071 35.304C128.815 36.0497 128.687 36.8984 128.687 37.8501C128.687 38.8018 128.815 39.6506 129.071 40.3963C129.334 41.142 129.721 41.7315 130.232 42.1648C130.751 42.5909 131.39 42.804 132.15 42.804ZM150.527 46.3196C148.851 46.3196 147.409 45.9645 146.202 45.2543C145.001 44.5369 144.078 43.5426 143.432 42.2713C142.792 41 142.473 39.5369 142.473 37.8821C142.473 36.206 142.796 34.7358 143.442 33.4716C144.096 32.2003 145.023 31.2095 146.223 30.4993C147.423 29.782 148.851 29.4233 150.506 29.4233C151.933 29.4233 153.183 29.6825 154.256 30.201C155.328 30.7195 156.177 31.4474 156.802 32.3849C157.427 33.3224 157.771 34.4233 157.835 35.6875H153.552C153.432 34.8707 153.112 34.2138 152.594 33.7166C152.082 33.2124 151.411 32.9602 150.58 32.9602C149.877 32.9602 149.263 33.152 148.737 33.5355C148.219 33.9119 147.814 34.4624 147.523 35.1868C147.231 35.9112 147.086 36.7884 147.086 37.8182C147.086 38.8622 147.228 39.75 147.512 40.4815C147.803 41.2131 148.211 41.7706 148.737 42.1541C149.263 42.5376 149.877 42.7294 150.58 42.7294C151.099 42.7294 151.564 42.6229 151.976 42.4098C152.395 42.1967 152.739 41.8878 153.009 41.483C153.286 41.071 153.467 40.5774 153.552 40.0021H157.835C157.764 41.2521 157.423 42.353 156.812 43.3047C156.209 44.2493 155.374 44.9879 154.309 45.5206C153.243 46.0533 151.983 46.3196 150.527 46.3196ZM159.625 33.2053V29.6364H174.454V33.2053H169.181V46H164.856V33.2053H159.625ZM184.013 46.3196C182.358 46.3196 180.927 45.968 179.72 45.2649C178.52 44.5547 177.593 43.5675 176.939 42.3033C176.286 41.032 175.959 39.5582 175.959 37.8821C175.959 36.1918 176.286 34.7145 176.939 33.4503C177.593 32.179 178.52 31.1918 179.72 30.4886C180.927 29.7784 182.358 29.4233 184.013 29.4233C185.668 29.4233 187.096 29.7784 188.296 30.4886C189.503 31.1918 190.434 32.179 191.087 33.4503C191.74 34.7145 192.067 36.1918 192.067 37.8821C192.067 39.5582 191.74 41.032 191.087 42.3033C190.434 43.5675 189.503 44.5547 188.296 45.2649C187.096 45.968 185.668 46.3196 184.013 46.3196ZM184.034 42.804C184.787 42.804 185.416 42.5909 185.92 42.1648C186.424 41.7315 186.804 41.142 187.06 40.3963C187.323 39.6506 187.454 38.8018 187.454 37.8501C187.454 36.8984 187.323 36.0497 187.06 35.304C186.804 34.5582 186.424 33.9687 185.92 33.5355C185.416 33.1023 184.787 32.8857 184.034 32.8857C183.275 32.8857 182.635 33.1023 182.117 33.5355C181.605 33.9687 181.218 34.5582 180.956 35.304C180.7 36.0497 180.572 36.8984 180.572 37.8501C180.572 38.8018 180.7 39.6506 180.956 40.3963C181.218 41.142 181.605 41.7315 182.117 42.1648C182.635 42.5909 183.275 42.804 184.034 42.804ZM214.354 31.8203H209.688C209.603 31.2166 209.429 30.6804 209.166 30.2116C208.903 29.7358 208.566 29.331 208.154 28.9972C207.742 28.6634 207.266 28.4077 206.726 28.2301C206.194 28.0526 205.615 27.9638 204.99 27.9638C203.86 27.9638 202.877 28.2443 202.039 28.8054C201.201 29.3594 200.551 30.169 200.089 31.2344C199.627 32.2926 199.397 33.5781 199.397 35.0909C199.397 36.6463 199.627 37.9531 200.089 39.0114C200.558 40.0696 201.211 40.8686 202.049 41.4084C202.887 41.9482 203.857 42.218 204.958 42.218C205.576 42.218 206.147 42.1364 206.673 41.973C207.206 41.8097 207.678 41.5717 208.09 41.2592C208.502 40.9396 208.843 40.5526 209.113 40.098C209.39 39.6435 209.581 39.125 209.688 38.5426L214.354 38.5639C214.233 39.5653 213.931 40.5312 213.449 41.4616C212.973 42.3849 212.33 43.2124 211.52 43.9439C210.718 44.6683 209.759 45.2436 208.644 45.6697C207.536 46.0888 206.282 46.2983 204.883 46.2983C202.937 46.2983 201.197 45.858 199.663 44.9773C198.136 44.0966 196.929 42.8217 196.041 41.1527C195.16 39.4837 194.72 37.4631 194.72 35.0909C194.72 32.7116 195.167 30.6875 196.062 29.0185C196.957 27.3494 198.172 26.0781 199.706 25.2045C201.24 24.3239 202.966 23.8835 204.883 23.8835C206.147 23.8835 207.319 24.0611 208.399 24.4162C209.485 24.7713 210.448 25.2898 211.286 25.9716C212.124 26.6463 212.806 27.4737 213.331 28.4538C213.864 29.4339 214.205 30.5561 214.354 31.8203ZM217.577 46V29.6364H231.884V46H227.548V33.2053H221.859V46H217.577ZM235.506 52.1364V29.6364H239.981V32.3849H240.183C240.382 31.9446 240.67 31.4972 241.046 31.0426C241.43 30.581 241.927 30.1974 242.538 29.892C243.156 29.5795 243.923 29.4233 244.839 29.4233C246.032 29.4233 247.133 29.7358 248.141 30.3608C249.15 30.9787 249.956 31.9126 250.56 33.1626C251.163 34.4055 251.465 35.9645 251.465 37.8395C251.465 39.6648 251.17 41.206 250.581 42.4631C249.999 43.7131 249.203 44.6612 248.195 45.3075C247.193 45.9467 246.071 46.2663 244.828 46.2663C243.947 46.2663 243.198 46.1207 242.58 45.8295C241.969 45.5384 241.469 45.1726 241.078 44.7322C240.688 44.2848 240.389 43.8338 240.183 43.3793H240.045V52.1364H235.506ZM239.949 37.8182C239.949 38.7912 240.084 39.6399 240.354 40.3643C240.624 41.0888 241.014 41.6534 241.526 42.0582C242.037 42.456 242.658 42.6548 243.39 42.6548C244.129 42.6548 244.754 42.4524 245.265 42.0476C245.776 41.6357 246.163 41.0675 246.426 40.343C246.696 39.6115 246.831 38.7699 246.831 37.8182C246.831 36.8736 246.7 36.0426 246.437 35.3253C246.174 34.608 245.787 34.0469 245.276 33.642C244.764 33.2372 244.136 33.0348 243.39 33.0348C242.651 33.0348 242.026 33.2301 241.515 33.6207C241.011 34.0114 240.624 34.5653 240.354 35.2827C240.084 36 239.949 36.8452 239.949 37.8182ZM259.157 46.3089C258.113 46.3089 257.183 46.1278 256.366 45.7656C255.549 45.3963 254.903 44.853 254.427 44.1357C253.958 43.4112 253.724 42.5092 253.724 41.4297C253.724 40.5206 253.891 39.7571 254.224 39.1392C254.558 38.5213 255.013 38.0241 255.588 37.6477C256.163 37.2713 256.817 36.9872 257.548 36.7955C258.287 36.6037 259.061 36.4688 259.871 36.3906C260.822 36.2912 261.589 36.1989 262.172 36.1136C262.754 36.0213 263.177 35.8864 263.44 35.7088C263.702 35.5312 263.834 35.2685 263.834 34.9205V34.8565C263.834 34.1818 263.621 33.6598 263.195 33.2905C262.776 32.9212 262.179 32.7365 261.405 32.7365C260.588 32.7365 259.938 32.9176 259.455 33.2798C258.972 33.6349 258.653 34.0824 258.496 34.6222L254.299 34.2812C254.512 33.2869 254.931 32.4276 255.556 31.7031C256.181 30.9716 256.987 30.4105 257.974 30.0199C258.969 29.6222 260.119 29.4233 261.426 29.4233C262.335 29.4233 263.205 29.5298 264.036 29.7429C264.874 29.956 265.616 30.2862 266.263 30.7337C266.916 31.1811 267.431 31.7564 267.808 32.4595C268.184 33.1555 268.372 33.9901 268.372 34.9631V46H264.068V43.7308H263.94C263.678 44.2422 263.326 44.6932 262.886 45.0838C262.445 45.4673 261.916 45.7692 261.298 45.9893C260.68 46.2024 259.967 46.3089 259.157 46.3089ZM260.457 43.1768C261.124 43.1768 261.714 43.0455 262.225 42.7827C262.737 42.5128 263.138 42.1506 263.429 41.696C263.72 41.2415 263.866 40.7266 263.866 40.1513V38.4148C263.724 38.5071 263.528 38.5923 263.28 38.6705C263.038 38.7415 262.765 38.8089 262.46 38.8729C262.154 38.9297 261.849 38.983 261.543 39.0327C261.238 39.0753 260.961 39.1143 260.712 39.1499C260.18 39.228 259.714 39.3523 259.317 39.5227C258.919 39.6932 258.61 39.924 258.39 40.2152C258.17 40.4993 258.06 40.8544 258.06 41.2805C258.06 41.8984 258.283 42.3707 258.731 42.6974C259.185 43.017 259.761 43.1768 260.457 43.1768ZM271.893 46V29.6364H278.871C280.888 29.6364 282.483 30.0199 283.654 30.7869C284.826 31.554 285.412 32.6442 285.412 34.0575C285.412 34.9453 285.082 35.6839 284.422 36.2734C283.761 36.8629 282.845 37.2607 281.673 37.4666C282.653 37.5376 283.488 37.7614 284.176 38.1378C284.873 38.5071 285.402 38.9865 285.764 39.576C286.133 40.1655 286.318 40.8189 286.318 41.5362C286.318 42.4666 286.069 43.2656 285.572 43.9332C285.082 44.6009 284.361 45.1122 283.409 45.4673C282.465 45.8224 281.311 46 279.947 46H271.893ZM276.123 42.6016H279.947C280.579 42.6016 281.073 42.4524 281.428 42.1541C281.79 41.8487 281.971 41.4332 281.971 40.9077C281.971 40.3253 281.79 39.8672 281.428 39.5334C281.073 39.1996 280.579 39.0327 279.947 39.0327H276.123V42.6016ZM276.123 36.3693H278.967C279.422 36.3693 279.809 36.3054 280.128 36.1776C280.455 36.0426 280.703 35.8509 280.874 35.6023C281.051 35.3537 281.14 35.0589 281.14 34.718C281.14 34.2138 280.938 33.8196 280.533 33.5355C280.128 33.2514 279.574 33.1094 278.871 33.1094H276.123V36.3693ZM296.572 46.3196C294.917 46.3196 293.486 45.968 292.278 45.2649C291.078 44.5547 290.151 43.5675 289.498 42.3033C288.844 41.032 288.518 39.5582 288.518 37.8821C288.518 36.1918 288.844 34.7145 289.498 33.4503C290.151 32.179 291.078 31.1918 292.278 30.4886C293.486 29.7784 294.917 29.4233 296.572 29.4233C298.227 29.4233 299.654 29.7784 300.854 30.4886C302.062 31.1918 302.992 32.179 303.646 33.4503C304.299 34.7145 304.626 36.1918 304.626 37.8821C304.626 39.5582 304.299 41.032 303.646 42.3033C302.992 43.5675 302.062 44.5547 300.854 45.2649C299.654 45.968 298.227 46.3196 296.572 46.3196ZM296.593 42.804C297.346 42.804 297.974 42.5909 298.479 42.1648C298.983 41.7315 299.363 41.142 299.619 40.3963C299.881 39.6506 300.013 38.8018 300.013 37.8501C300.013 36.8984 299.881 36.0497 299.619 35.304C299.363 34.5582 298.983 33.9687 298.479 33.5355C297.974 33.1023 297.346 32.8857 296.593 32.8857C295.833 32.8857 295.194 33.1023 294.675 33.5355C294.164 33.9687 293.777 34.5582 293.514 35.304C293.259 36.0497 293.131 36.8984 293.131 37.8501C293.131 38.8018 293.259 39.6506 293.514 40.3963C293.777 41.142 294.164 41.7315 294.675 42.1648C295.194 42.5909 295.833 42.804 296.593 42.804ZM321.778 29.6364V46H317.474V29.6364H321.778ZM319.679 36.8168V40.3963C319.331 40.5526 318.898 40.7017 318.379 40.8438C317.861 40.9787 317.317 41.0888 316.749 41.174C316.181 41.2592 315.648 41.3018 315.151 41.3018C312.8 41.3018 310.95 40.8189 309.601 39.853C308.251 38.88 307.577 37.3281 307.577 35.1974V29.6151H311.859V35.1974C311.859 35.8295 311.966 36.3303 312.179 36.6996C312.399 37.0689 312.747 37.3352 313.223 37.4986C313.706 37.6548 314.349 37.733 315.151 37.733C315.897 37.733 316.629 37.6548 317.346 37.4986C318.063 37.3423 318.841 37.1151 319.679 36.8168ZM336.69 36.0071V39.576H328.146V36.0071H336.69ZM329.637 29.6364V46H325.301V29.6364H329.637ZM339.534 29.6364V46H335.23V29.6364H339.534ZM347.391 40.0128L353.282 29.6364H357.757V46H353.432V35.5916L347.562 46H343.055V29.6364H347.391V40.0128ZM361.395 46V29.6364H365.933V35.9858H367.212L371.665 29.6364H376.992L371.207 37.7543L377.056 46H371.665L367.627 40.1939H365.933V46H361.395Z" fill="#4078F6"/>
<line x1="33.5061" y1="22.4142" x2="14.4142" y2="41.5061" stroke="white" stroke-width="4"/>
<line x1="31.3851" y1="22.5573" x2="50.8619" y2="41.2563" stroke="white" stroke-width="4"/>
<line x1="41" y1="22" x2="41" y2="31" stroke="white" stroke-width="4"/>
<rect x="29" y="34" width="7" height="12" fill="white"/>
</svg>
