<svg width="405" height="67" viewBox="0 0 405 67" fill="none" xmlns="http://www.w3.org/2000/svg">
<circle cx="31" cy="34" r="30" fill="#4078F6" fill-opacity="0.9"/>
<circle cx="50.5" cy="21.5" r="18.5" fill="#FEC47C" fill-opacity="0.9"/>
<circle cx="24.5" cy="24.5" r="24.5" fill="#9A6AD7" fill-opacity="0.9"/>
<circle cx="45" cy="50" r="17" fill="#D36190" fill-opacity="0.9"/>
<path d="M113.444 22.1818V44H108.884V25.9318H100.063V44H95.5036V22.1818H113.444ZM117.751 50.1364V27.6364H122.225V30.3849H122.427C122.626 29.9446 122.914 29.4972 123.29 29.0426C123.674 28.581 124.171 28.1974 124.782 27.892C125.4 27.5795 126.167 27.4233 127.083 27.4233C128.276 27.4233 129.377 27.7358 130.385 28.3608C131.394 28.9787 132.2 29.9126 132.804 31.1626C133.407 32.4055 133.709 33.9645 133.709 35.8395C133.709 37.6648 133.415 39.206 132.825 40.4631C132.243 41.7131 131.447 42.6612 130.439 43.3075C129.437 43.9467 128.315 44.2663 127.072 44.2663C126.192 44.2663 125.442 44.1207 124.824 43.8295C124.214 43.5384 123.713 43.1726 123.322 42.7322C122.932 42.2848 122.633 41.8338 122.427 41.3793H122.289V50.1364H117.751ZM122.193 35.8182C122.193 36.7912 122.328 37.6399 122.598 38.3643C122.868 39.0888 123.258 39.6534 123.77 40.0582C124.281 40.456 124.903 40.6548 125.634 40.6548C126.373 40.6548 126.998 40.4524 127.509 40.0476C128.02 39.6357 128.407 39.0675 128.67 38.343C128.94 37.6115 129.075 36.7699 129.075 35.8182C129.075 34.8736 128.944 34.0426 128.681 33.3253C128.418 32.608 128.031 32.0469 127.52 31.642C127.008 31.2372 126.38 31.0348 125.634 31.0348C124.895 31.0348 124.27 31.2301 123.759 31.6207C123.255 32.0114 122.868 32.5653 122.598 33.2827C122.328 34 122.193 34.8452 122.193 35.8182ZM144.128 44.3196C142.474 44.3196 141.042 43.968 139.835 43.2649C138.635 42.5547 137.708 41.5675 137.055 40.3033C136.401 39.032 136.074 37.5582 136.074 35.8821C136.074 34.1918 136.401 32.7145 137.055 31.4503C137.708 30.179 138.635 29.1918 139.835 28.4886C141.042 27.7784 142.474 27.4233 144.128 27.4233C145.783 27.4233 147.211 27.7784 148.411 28.4886C149.618 29.1918 150.549 30.179 151.202 31.4503C151.856 32.7145 152.182 34.1918 152.182 35.8821C152.182 37.5582 151.856 39.032 151.202 40.3033C150.549 41.5675 149.618 42.5547 148.411 43.2649C147.211 43.968 145.783 44.3196 144.128 44.3196ZM144.15 40.804C144.903 40.804 145.531 40.5909 146.035 40.1648C146.54 39.7315 146.92 39.142 147.175 38.3963C147.438 37.6506 147.569 36.8018 147.569 35.8501C147.569 34.8984 147.438 34.0497 147.175 33.304C146.92 32.5582 146.54 31.9687 146.035 31.5355C145.531 31.1023 144.903 30.8857 144.15 30.8857C143.39 30.8857 142.751 31.1023 142.232 31.5355C141.721 31.9687 141.334 32.5582 141.071 33.304C140.815 34.0497 140.687 34.8984 140.687 35.8501C140.687 36.8018 140.815 37.6506 141.071 38.3963C141.334 39.142 141.721 39.7315 142.232 40.1648C142.751 40.5909 143.39 40.804 144.15 40.804ZM162.527 44.3196C160.851 44.3196 159.409 43.9645 158.202 43.2543C157.001 42.5369 156.078 41.5426 155.432 40.2713C154.792 39 154.473 37.5369 154.473 35.8821C154.473 34.206 154.796 32.7358 155.442 31.4716C156.096 30.2003 157.023 29.2095 158.223 28.4993C159.423 27.782 160.851 27.4233 162.506 27.4233C163.933 27.4233 165.183 27.6825 166.256 28.201C167.328 28.7195 168.177 29.4474 168.802 30.3849C169.427 31.3224 169.771 32.4233 169.835 33.6875H165.552C165.432 32.8707 165.112 32.2138 164.594 31.7166C164.082 31.2124 163.411 30.9602 162.58 30.9602C161.877 30.9602 161.263 31.152 160.737 31.5355C160.219 31.9119 159.814 32.4624 159.523 33.1868C159.231 33.9112 159.086 34.7884 159.086 35.8182C159.086 36.8622 159.228 37.75 159.512 38.4815C159.803 39.2131 160.211 39.7706 160.737 40.1541C161.263 40.5376 161.877 40.7294 162.58 40.7294C163.099 40.7294 163.564 40.6229 163.976 40.4098C164.395 40.1967 164.739 39.8878 165.009 39.483C165.286 39.071 165.467 38.5774 165.552 38.0021H169.835C169.764 39.2521 169.423 40.353 168.812 41.3047C168.209 42.2493 167.374 42.9879 166.309 43.5206C165.243 44.0533 163.983 44.3196 162.527 44.3196ZM171.625 31.2053V27.6364H186.454V31.2053H181.181V44H176.856V31.2053H171.625ZM196.013 44.3196C194.358 44.3196 192.927 43.968 191.72 43.2649C190.52 42.5547 189.593 41.5675 188.939 40.3033C188.286 39.032 187.959 37.5582 187.959 35.8821C187.959 34.1918 188.286 32.7145 188.939 31.4503C189.593 30.179 190.52 29.1918 191.72 28.4886C192.927 27.7784 194.358 27.4233 196.013 27.4233C197.668 27.4233 199.096 27.7784 200.296 28.4886C201.503 29.1918 202.434 30.179 203.087 31.4503C203.74 32.7145 204.067 34.1918 204.067 35.8821C204.067 37.5582 203.74 39.032 203.087 40.3033C202.434 41.5675 201.503 42.5547 200.296 43.2649C199.096 43.968 197.668 44.3196 196.013 44.3196ZM196.034 40.804C196.787 40.804 197.416 40.5909 197.92 40.1648C198.424 39.7315 198.804 39.142 199.06 38.3963C199.323 37.6506 199.454 36.8018 199.454 35.8501C199.454 34.8984 199.323 34.0497 199.06 33.304C198.804 32.5582 198.424 31.9687 197.92 31.5355C197.416 31.1023 196.787 30.8857 196.034 30.8857C195.275 30.8857 194.635 31.1023 194.117 31.5355C193.605 31.9687 193.218 32.5582 192.956 33.304C192.7 34.0497 192.572 34.8984 192.572 35.8501C192.572 36.8018 192.7 37.6506 192.956 38.3963C193.218 39.142 193.605 39.7315 194.117 40.1648C194.635 40.5909 195.275 40.804 196.034 40.804ZM209.839 44H204.895L212.427 22.1818H218.372L225.893 44H220.95L215.485 27.1676H215.314L209.839 44ZM209.53 35.424H221.206V39.0249H209.53V35.424ZM228.434 44V27.6364H235.412C237.429 27.6364 239.024 28.0199 240.195 28.7869C241.367 29.554 241.953 30.6442 241.953 32.0575C241.953 32.9453 241.623 33.6839 240.963 34.2734C240.302 34.8629 239.386 35.2607 238.214 35.4666C239.194 35.5376 240.029 35.7614 240.718 36.1378C241.414 36.5071 241.943 36.9865 242.305 37.576C242.674 38.1655 242.859 38.8189 242.859 39.5362C242.859 40.4666 242.61 41.2656 242.113 41.9332C241.623 42.6009 240.902 43.1122 239.95 43.4673C239.006 43.8224 237.852 44 236.488 44H228.434ZM232.664 40.6016H236.488C237.12 40.6016 237.614 40.4524 237.969 40.1541C238.331 39.8487 238.512 39.4332 238.512 38.9077C238.512 38.3253 238.331 37.8672 237.969 37.5334C237.614 37.1996 237.12 37.0327 236.488 37.0327H232.664V40.6016ZM232.664 34.3693H235.508C235.963 34.3693 236.35 34.3054 236.669 34.1776C236.996 34.0426 237.244 33.8509 237.415 33.6023C237.593 33.3537 237.681 33.0589 237.681 32.718C237.681 32.2138 237.479 31.8196 237.074 31.5355C236.669 31.2514 236.115 31.1094 235.412 31.1094H232.664V34.3693ZM244.867 31.2053V27.6364H259.697V31.2053H254.423V44H250.098V31.2053H244.867ZM269.255 44.3196C267.6 44.3196 266.169 43.968 264.962 43.2649C263.762 42.5547 262.835 41.5675 262.181 40.3033C261.528 39.032 261.201 37.5582 261.201 35.8821C261.201 34.1918 261.528 32.7145 262.181 31.4503C262.835 30.179 263.762 29.1918 264.962 28.4886C266.169 27.7784 267.6 27.4233 269.255 27.4233C270.91 27.4233 272.338 27.7784 273.538 28.4886C274.745 29.1918 275.676 30.179 276.329 31.4503C276.983 32.7145 277.309 34.1918 277.309 35.8821C277.309 37.5582 276.983 39.032 276.329 40.3033C275.676 41.5675 274.745 42.5547 273.538 43.2649C272.338 43.968 270.91 44.3196 269.255 44.3196ZM269.277 40.804C270.029 40.804 270.658 40.5909 271.162 40.1648C271.667 39.7315 272.047 39.142 272.302 38.3963C272.565 37.6506 272.696 36.8018 272.696 35.8501C272.696 34.8984 272.565 34.0497 272.302 33.304C272.047 32.5582 271.667 31.9687 271.162 31.5355C270.658 31.1023 270.029 30.8857 269.277 30.8857C268.517 30.8857 267.877 31.1023 267.359 31.5355C266.848 31.9687 266.461 32.5582 266.198 33.304C265.942 34.0497 265.814 34.8984 265.814 35.8501C265.814 36.8018 265.942 37.6506 266.198 38.3963C266.461 39.142 266.848 39.7315 267.359 40.1648C267.877 40.5909 268.517 40.804 269.277 40.804ZM280.26 50.1364V27.6364H284.735V30.3849H284.937C285.136 29.9446 285.424 29.4972 285.8 29.0426C286.184 28.581 286.681 28.1974 287.292 27.892C287.909 27.5795 288.676 27.4233 289.593 27.4233C290.786 27.4233 291.887 27.7358 292.895 28.3608C293.904 28.9787 294.71 29.9126 295.314 31.1626C295.917 32.4055 296.219 33.9645 296.219 35.8395C296.219 37.6648 295.924 39.206 295.335 40.4631C294.752 41.7131 293.957 42.6612 292.949 43.3075C291.947 43.9467 290.825 44.2663 289.582 44.2663C288.701 44.2663 287.952 44.1207 287.334 43.8295C286.723 43.5384 286.223 43.1726 285.832 42.7322C285.441 42.2848 285.143 41.8338 284.937 41.3793H284.799V50.1364H280.26ZM284.703 35.8182C284.703 36.7912 284.838 37.6399 285.108 38.3643C285.377 39.0888 285.768 39.6534 286.279 40.0582C286.791 40.456 287.412 40.6548 288.144 40.6548C288.882 40.6548 289.507 40.4524 290.019 40.0476C290.53 39.6357 290.917 39.0675 291.18 38.343C291.45 37.6115 291.585 36.7699 291.585 35.8182C291.585 34.8736 291.453 34.0426 291.191 33.3253C290.928 32.608 290.541 32.0469 290.029 31.642C289.518 31.2372 288.89 31.0348 288.144 31.0348C287.405 31.0348 286.78 31.2301 286.269 31.6207C285.765 32.0114 285.377 32.5653 285.108 33.2827C284.838 34 284.703 34.8452 284.703 35.8182ZM303.581 38.0128L309.472 27.6364H313.946V44H309.621V33.5916L303.751 44H299.245V27.6364H303.581V38.0128ZM316.743 39.3658H321.143C321.164 39.9055 321.406 40.3317 321.867 40.6442C322.329 40.9567 322.925 41.1129 323.657 41.1129C324.396 41.1129 325.017 40.9425 325.521 40.6016C326.026 40.2536 326.278 39.7564 326.278 39.1101C326.278 38.7124 326.178 38.3679 325.979 38.0767C325.781 37.7784 325.504 37.544 325.148 37.3736C324.793 37.2031 324.381 37.1179 323.913 37.1179H321.558V34.1456H323.913C324.616 34.1456 325.156 33.9822 325.532 33.6555C325.915 33.3288 326.107 32.9205 326.107 32.4304C326.107 31.8764 325.908 31.4325 325.511 31.0987C325.12 30.7578 324.591 30.5874 323.923 30.5874C323.249 30.5874 322.688 30.7401 322.24 31.0455C321.8 31.3437 321.572 31.7344 321.558 32.2173H317.18C317.194 31.2372 317.489 30.3885 318.064 29.6712C318.646 28.9538 319.428 28.3999 320.408 28.0092C321.395 27.6186 322.499 27.4233 323.721 27.4233C325.056 27.4233 326.207 27.6115 327.173 27.9879C328.146 28.3572 328.891 28.8864 329.41 29.5753C329.935 30.2642 330.198 31.0845 330.198 32.0362C330.198 32.9027 329.914 33.6271 329.346 34.2095C328.778 34.7919 327.982 35.2074 326.96 35.456V35.6264C327.634 35.669 328.245 35.8501 328.792 36.1697C329.339 36.4893 329.776 36.9297 330.102 37.4908C330.429 38.0447 330.592 38.7017 330.592 39.4616C330.592 40.4773 330.294 41.3473 329.697 42.0717C329.108 42.7962 328.291 43.3537 327.247 43.7443C326.21 44.1278 325.021 44.3196 323.678 44.3196C322.371 44.3196 321.2 44.1314 320.163 43.755C319.133 43.3714 318.313 42.8104 317.702 42.0717C317.098 41.3331 316.778 40.4311 316.743 39.3658ZM338.042 44.3089C336.998 44.3089 336.067 44.1278 335.251 43.7656C334.434 43.3963 333.787 42.853 333.312 42.1357C332.843 41.4112 332.608 40.5092 332.608 39.4297C332.608 38.5206 332.775 37.7571 333.109 37.1392C333.443 36.5213 333.898 36.0241 334.473 35.6477C335.048 35.2713 335.702 34.9872 336.433 34.7955C337.172 34.6037 337.946 34.4688 338.756 34.3906C339.707 34.2912 340.474 34.1989 341.057 34.1136C341.639 34.0213 342.062 33.8864 342.324 33.7088C342.587 33.5312 342.719 33.2685 342.719 32.9205V32.8565C342.719 32.1818 342.506 31.6598 342.079 31.2905C341.66 30.9212 341.064 30.7365 340.29 30.7365C339.473 30.7365 338.823 30.9176 338.34 31.2798C337.857 31.6349 337.537 32.0824 337.381 32.6222L333.184 32.2812C333.397 31.2869 333.816 30.4276 334.441 29.7031C335.066 28.9716 335.872 28.4105 336.859 28.0199C337.854 27.6222 339.004 27.4233 340.311 27.4233C341.22 27.4233 342.09 27.5298 342.921 27.7429C343.759 27.956 344.501 28.2862 345.148 28.7337C345.801 29.1811 346.316 29.7564 346.692 30.4595C347.069 31.1555 347.257 31.9901 347.257 32.9631V44H342.953V41.7308H342.825C342.562 42.2422 342.211 42.6932 341.77 43.0838C341.33 43.4673 340.801 43.7692 340.183 43.9893C339.565 44.2024 338.851 44.3089 338.042 44.3089ZM339.341 41.1768C340.009 41.1768 340.599 41.0455 341.11 40.7827C341.621 40.5128 342.023 40.1506 342.314 39.696C342.605 39.2415 342.751 38.7266 342.751 38.1513V36.4148C342.608 36.5071 342.413 36.5923 342.165 36.6705C341.923 36.7415 341.65 36.8089 341.344 36.8729C341.039 36.9297 340.733 36.983 340.428 37.0327C340.123 37.0753 339.846 37.1143 339.597 37.1499C339.064 37.228 338.599 37.3523 338.202 37.5227C337.804 37.6932 337.495 37.924 337.275 38.2152C337.055 38.4993 336.944 38.8544 336.944 39.2805C336.944 39.8984 337.168 40.3707 337.616 40.6974C338.07 41.017 338.645 41.1768 339.341 41.1768ZM365.085 27.6364V40.8679H367.695V49.2628H363.285V44H350.778V27.6364H355.114V40.4311H360.803V27.6364H365.085ZM374.831 38.0128L380.722 27.6364H385.196V44H380.871V33.5916L375.001 44H370.495V27.6364H374.831V38.0128ZM398.423 44V31.1946H395.354C394.523 31.1946 393.891 31.3864 393.458 31.7699C393.025 32.1534 392.812 32.608 392.819 33.1335C392.812 33.6662 393.018 34.1172 393.437 34.4865C393.863 34.8487 394.488 35.0298 395.312 35.0298H399.935V38.098H395.312C393.913 38.098 392.702 37.8849 391.679 37.4588C390.656 37.0327 389.868 36.4396 389.314 35.6797C388.76 34.9126 388.487 34.0213 388.494 33.0057C388.487 31.9403 388.76 31.0064 389.314 30.2038C389.868 29.3942 390.66 28.7656 391.69 28.3182C392.727 27.8636 393.948 27.6364 395.354 27.6364H402.652V44H398.423ZM388.025 44L392.574 35.4773H396.91L392.371 44H388.025Z" fill="#4078F6"/>
<line x1="31.5061" y1="18.4142" x2="12.4142" y2="37.5061" stroke="white" stroke-width="4"/>
<line x1="29.3851" y1="18.5573" x2="48.8619" y2="37.2563" stroke="white" stroke-width="4"/>
<line x1="39" y1="18" x2="39" y2="27" stroke="white" stroke-width="4"/>
<rect x="27" y="30" width="7" height="12" fill="white"/>
</svg>
