<svg width="205" height="189" viewBox="0 0 205 189" fill="none" xmlns="http://www.w3.org/2000/svg">
<circle cx="95.0864" cy="86.1917" r="61.0513" fill="#4078F6" fill-opacity="0.9"/>
<circle cx="95.0864" cy="86.1917" r="60.5513" stroke="white" stroke-opacity="0.2"/>
<circle cx="134.77" cy="60.7535" r="37.6483" fill="#FEC47C" fill-opacity="0.9"/>
<circle cx="81.8585" cy="66.8585" r="49.8585" fill="#9A6AD7" fill-opacity="0.9"/>
<circle cx="123.577" cy="118.752" r="34.5957" fill="#D36190" fill-opacity="0.9"/>
<line x1="99.4296" y1="61.8574" x2="60.5768" y2="100.71" stroke="white" stroke-width="6"/>
<line x1="96.2433" y1="63.677" x2="135.879" y2="101.73" stroke="white" stroke-width="6"/>
<line x1="114.367" y1="61.7708" x2="114.367" y2="80.0861" stroke="white" stroke-width="6"/>
<rect x="91.0162" y="86.1914" width="14.2453" height="24.4205" fill="white"/>
<path d="M20.4439 160.182V182H15.8842V163.932H7.06321V182H2.50355V160.182H20.4439ZM24.7505 188.136V165.636H29.225V168.385H29.4274C29.6262 167.945 29.9139 167.497 30.2903 167.043C30.6738 166.581 31.171 166.197 31.7818 165.892C32.3997 165.58 33.1667 165.423 34.0829 165.423C35.2761 165.423 36.377 165.736 37.3855 166.361C38.394 166.979 39.2001 167.913 39.8038 169.163C40.4075 170.406 40.7093 171.964 40.7093 173.839C40.7093 175.665 40.4146 177.206 39.8251 178.463C39.2427 179.713 38.4473 180.661 37.4387 181.308C36.4373 181.947 35.3152 182.266 34.0723 182.266C33.1916 182.266 32.4423 182.121 31.8244 181.83C31.2136 181.538 30.7129 181.173 30.3223 180.732C29.9316 180.285 29.6333 179.834 29.4274 179.379H29.2889V188.136H24.7505ZM29.193 173.818C29.193 174.791 29.3279 175.64 29.5978 176.364C29.8677 177.089 30.2583 177.653 30.7697 178.058C31.2811 178.456 31.9025 178.655 32.6341 178.655C33.3727 178.655 33.9977 178.452 34.5091 178.048C35.0204 177.636 35.4075 177.067 35.6703 176.343C35.9402 175.612 36.0751 174.77 36.0751 173.818C36.0751 172.874 35.9437 172.043 35.6809 171.325C35.4181 170.608 35.0311 170.047 34.5197 169.642C34.0083 169.237 33.3798 169.035 32.6341 169.035C31.8954 169.035 31.2704 169.23 30.7591 169.621C30.2548 170.011 29.8677 170.565 29.5978 171.283C29.3279 172 29.193 172.845 29.193 173.818ZM51.1284 182.32C49.4735 182.32 48.0424 181.968 46.835 181.265C45.6348 180.555 44.7079 179.567 44.0545 178.303C43.4011 177.032 43.0744 175.558 43.0744 173.882C43.0744 172.192 43.4011 170.714 44.0545 169.45C44.7079 168.179 45.6348 167.192 46.835 166.489C48.0424 165.778 49.4735 165.423 51.1284 165.423C52.7832 165.423 54.2108 165.778 55.411 166.489C56.6184 167.192 57.5488 168.179 58.2022 169.45C58.8556 170.714 59.1824 172.192 59.1824 173.882C59.1824 175.558 58.8556 177.032 58.2022 178.303C57.5488 179.567 56.6184 180.555 55.411 181.265C54.2108 181.968 52.7832 182.32 51.1284 182.32ZM51.1497 178.804C51.9025 178.804 52.5311 178.591 53.0353 178.165C53.5396 177.732 53.9196 177.142 54.1752 176.396C54.438 175.651 54.5694 174.802 54.5694 173.85C54.5694 172.898 54.438 172.05 54.1752 171.304C53.9196 170.558 53.5396 169.969 53.0353 169.536C52.5311 169.102 51.9025 168.886 51.1497 168.886C50.3897 168.886 49.7505 169.102 49.2321 169.536C48.7207 169.969 48.3336 170.558 48.0708 171.304C47.8152 172.05 47.6873 172.898 47.6873 173.85C47.6873 174.802 47.8152 175.651 48.0708 176.396C48.3336 177.142 48.7207 177.732 49.2321 178.165C49.7505 178.591 50.3897 178.804 51.1497 178.804ZM69.5268 182.32C67.8507 182.32 66.4089 181.964 65.2015 181.254C64.0012 180.537 63.0779 179.543 62.4316 178.271C61.7924 177 61.4728 175.537 61.4728 173.882C61.4728 172.206 61.796 170.736 62.4423 169.472C63.0957 168.2 64.0225 167.21 65.2228 166.499C66.4231 165.782 67.8507 165.423 69.5055 165.423C70.9331 165.423 72.1831 165.683 73.2555 166.201C74.3279 166.719 75.1767 167.447 75.8017 168.385C76.4267 169.322 76.7711 170.423 76.835 171.688H72.5524C72.4316 170.871 72.112 170.214 71.5936 169.717C71.0822 169.212 70.411 168.96 69.5801 168.96C68.877 168.96 68.2626 169.152 67.737 169.536C67.2186 169.912 66.8137 170.462 66.5225 171.187C66.2314 171.911 66.0858 172.788 66.0858 173.818C66.0858 174.862 66.2278 175.75 66.5119 176.482C66.8031 177.213 67.2115 177.771 67.737 178.154C68.2626 178.538 68.877 178.729 69.5801 178.729C70.0985 178.729 70.5637 178.623 70.9757 178.41C71.3947 178.197 71.7392 177.888 72.0091 177.483C72.286 177.071 72.4672 176.577 72.5524 176.002H76.835C76.764 177.252 76.4231 178.353 75.8123 179.305C75.2086 180.249 74.3741 180.988 73.3088 181.521C72.2434 182.053 70.9828 182.32 69.5268 182.32ZM78.6248 169.205V165.636H93.4544V169.205H88.1809V182H83.8556V169.205H78.6248ZM103.013 182.32C101.358 182.32 99.9272 181.968 98.7198 181.265C97.5195 180.555 96.5927 179.567 95.9393 178.303C95.2859 177.032 94.9592 175.558 94.9592 173.882C94.9592 172.192 95.2859 170.714 95.9393 169.45C96.5927 168.179 97.5195 167.192 98.7198 166.489C99.9272 165.778 101.358 165.423 103.013 165.423C104.668 165.423 106.096 165.778 107.296 166.489C108.503 167.192 109.434 168.179 110.087 169.45C110.74 170.714 111.067 172.192 111.067 173.882C111.067 175.558 110.74 177.032 110.087 178.303C109.434 179.567 108.503 180.555 107.296 181.265C106.096 181.968 104.668 182.32 103.013 182.32ZM103.034 178.804C103.787 178.804 104.416 178.591 104.92 178.165C105.424 177.732 105.804 177.142 106.06 176.396C106.323 175.651 106.454 174.802 106.454 173.85C106.454 172.898 106.323 172.05 106.06 171.304C105.804 170.558 105.424 169.969 104.92 169.536C104.416 169.102 103.787 168.886 103.034 168.886C102.275 168.886 101.635 169.102 101.117 169.536C100.605 169.969 100.218 170.558 99.9556 171.304C99.6999 172.05 99.5721 172.898 99.5721 173.85C99.5721 174.802 99.6999 175.651 99.9556 176.396C100.218 177.142 100.605 177.732 101.117 178.165C101.635 178.591 102.275 178.804 103.034 178.804ZM114.103 182V160.182H128.581V163.985H118.716V168.246H122.264C123.99 168.246 125.478 168.527 126.728 169.088C127.985 169.642 128.954 170.427 129.636 171.442C130.318 172.458 130.659 173.655 130.659 175.033C130.659 176.403 130.318 177.614 129.636 178.665C128.954 179.71 127.985 180.526 126.728 181.116C125.478 181.705 123.99 182 122.264 182H114.103ZM118.716 178.293H122.264C123.088 178.293 123.784 178.143 124.352 177.845C124.92 177.54 125.35 177.138 125.641 176.641C125.939 176.137 126.088 175.587 126.088 174.99C126.088 174.124 125.758 173.392 125.098 172.795C124.444 172.192 123.5 171.89 122.264 171.89H118.716V178.293ZM133.559 188.136V165.636H138.034V168.385H138.236C138.435 167.945 138.722 167.497 139.099 167.043C139.482 166.581 139.98 166.197 140.59 165.892C141.208 165.58 141.975 165.423 142.892 165.423C144.085 165.423 145.186 165.736 146.194 166.361C147.203 166.979 148.009 167.913 148.612 169.163C149.216 170.406 149.518 171.964 149.518 173.839C149.518 175.665 149.223 177.206 148.634 178.463C148.051 179.713 147.256 180.661 146.247 181.308C145.246 181.947 144.124 182.266 142.881 182.266C142 182.266 141.251 182.121 140.633 181.83C140.022 181.538 139.521 181.173 139.131 180.732C138.74 180.285 138.442 179.834 138.236 179.379H138.097V188.136H133.559ZM138.002 173.818C138.002 174.791 138.137 175.64 138.406 176.364C138.676 177.089 139.067 177.653 139.578 178.058C140.09 178.456 140.711 178.655 141.443 178.655C142.181 178.655 142.806 178.452 143.318 178.048C143.829 177.636 144.216 177.067 144.479 176.343C144.749 175.612 144.884 174.77 144.884 173.818C144.884 172.874 144.752 172.043 144.49 171.325C144.227 170.608 143.84 170.047 143.328 169.642C142.817 169.237 142.188 169.035 141.443 169.035C140.704 169.035 140.079 169.23 139.568 169.621C139.063 170.011 138.676 170.565 138.406 171.283C138.137 172 138.002 172.845 138.002 173.818ZM159.937 182.32C158.282 182.32 156.851 181.968 155.644 181.265C154.443 180.555 153.517 179.567 152.863 178.303C152.21 177.032 151.883 175.558 151.883 173.882C151.883 172.192 152.21 170.714 152.863 169.45C153.517 168.179 154.443 167.192 155.644 166.489C156.851 165.778 158.282 165.423 159.937 165.423C161.592 165.423 163.019 165.778 164.22 166.489C165.427 167.192 166.357 168.179 167.011 169.45C167.664 170.714 167.991 172.192 167.991 173.882C167.991 175.558 167.664 177.032 167.011 178.303C166.357 179.567 165.427 180.555 164.22 181.265C163.019 181.968 161.592 182.32 159.937 182.32ZM159.958 178.804C160.711 178.804 161.34 178.591 161.844 178.165C162.348 177.732 162.728 177.142 162.984 176.396C163.247 175.651 163.378 174.802 163.378 173.85C163.378 172.898 163.247 172.05 162.984 171.304C162.728 170.558 162.348 169.969 161.844 169.536C161.34 169.102 160.711 168.886 159.958 168.886C159.198 168.886 158.559 169.102 158.041 169.536C157.529 169.969 157.142 170.558 156.879 171.304C156.624 172.05 156.496 172.898 156.496 173.85C156.496 174.802 156.624 175.651 156.879 176.396C157.142 177.142 157.529 177.732 158.041 178.165C158.559 178.591 159.198 178.804 159.958 178.804ZM182.33 172.007V175.576H173.786V172.007H182.33ZM175.278 165.636V182H170.942V165.636H175.278ZM185.175 165.636V182H180.871V165.636H185.175ZM191.54 170.665H196.43C198.596 170.665 200.287 171.183 201.501 172.22C202.716 173.25 203.323 174.628 203.323 176.354C203.323 177.476 203.05 178.463 202.503 179.315C201.956 180.161 201.167 180.821 200.138 181.297C199.108 181.766 197.872 182 196.43 182H188.696V165.636H193.032V178.431H196.43C197.19 178.431 197.815 178.239 198.305 177.856C198.795 177.472 199.044 176.982 199.051 176.386C199.044 175.754 198.795 175.239 198.305 174.841C197.815 174.436 197.19 174.234 196.43 174.234H191.54V170.665Z" fill="white"/>
<circle cx="114.5" cy="6.5" r="6.5" fill="#D36190" fill-opacity="0.9"/>
<path d="M172 103C172 105.209 170.209 107 168 107C165.791 107 164 105.209 164 103C164 100.791 165.791 99 168 99C170.209 99 172 100.791 172 103Z" fill="#FEC47C" fill-opacity="0.9"/>
<path d="M20 89C20 91.2091 18.2091 93 16 93C13.7909 93 12 91.2091 12 89C12 86.7909 13.7909 85 16 85C18.2091 85 20 86.7909 20 89Z" fill="#FEC47C" fill-opacity="0.9"/>
<circle cx="186.5" cy="86.5" r="9.5" fill="#9A6AD7"/>
<circle cx="37" cy="138" r="5" fill="#D36190" fill-opacity="0.9"/>
</svg>
